<?xml version="1.0" encoding="UTF-8" standalone="no"?>
<svg
   xmlns:dc="http://purl.org/dc/elements/1.1/"
   xmlns:cc="http://creativecommons.org/ns#"
   xmlns:rdf="http://www.w3.org/1999/02/22-rdf-syntax-ns#"
   xmlns:svg="http://www.w3.org/2000/svg"
   xmlns="http://www.w3.org/2000/svg"
   id="svg6"
   xml:space="preserve"
   enable-background="new 0 0 1024 1024"
   viewBox="0 0 1024 1024"
   y="0px"
   x="0px"
   version="1.1"><metadata
     id="metadata12"><rdf:RDF><cc:Work
         rdf:about=""><dc:format>image/svg+xml</dc:format><dc:type
           rdf:resource="http://purl.org/dc/dcmitype/StillImage" /></cc:Work></rdf:RDF></metadata><defs
     id="defs10" /><g
     id="g4"
     transform="translate(0,128)"><path
       style="fill:#fcfcfc"
       id="path2"
       d="m 498.76,183.95 -0.02,0.02 0.02,-0.01 z m -0.02,0.02 c -0.04,0.01 -0.48,0.3 -1.01,0.65 -0.54,0.37 -1.28,0.88 -1.65,1.15 -0.37,0.27 -1.01,0.74 -1.42,1.05 -0.41,0.31 -1.14,0.89 -1.63,1.28 -0.49,0.39 -1.21,0.98 -1.6,1.32 -0.39,0.33 -1.02,0.89 -1.41,1.24 -0.39,0.35 -1.26,1.16 -1.93,1.79 -0.67,0.64 -1.74,1.73 -2.38,2.42 -0.65,0.69 -1.49,1.62 -1.87,2.07 -0.39,0.44 -0.94,1.12 -1.24,1.49 -0.3,0.37 -0.84,1.07 -1.2,1.55 -0.37,0.49 -0.96,1.32 -1.32,1.85 -0.35,0.52 -0.85,1.29 -1.11,1.71 -0.25,0.41 -0.68,1.14 -0.96,1.63 -0.27,0.49 -0.68,1.27 -0.91,1.73 -0.24,0.47 -0.59,1.22 -0.79,1.67 -0.2,0.45 -0.5,1.19 -0.68,1.63 -0.17,0.44 -0.45,1.29 -0.63,1.87 -0.17,0.59 -0.43,1.56 -0.57,2.16 -0.14,0.61 -0.33,1.58 -0.43,2.16 -0.1,0.59 -0.24,1.59 -0.32,2.24 -0.08,0.64 -0.18,1.58 -0.22,2.09 -0.04,0.51 -0.09,2.15 -0.12,3.65 -0.02,1.66 0,3.4 0.05,4.43 0.04,0.94 0.13,2.31 0.19,3.05 0.05,0.74 0.18,2.09 0.28,3.01 0.1,0.92 0.29,2.49 0.42,3.5 0.14,1.01 0.38,2.65 0.54,3.65 0.15,1 0.49,2.94 0.74,4.3 0.24,1.37 0.64,3.45 0.88,4.64 0.24,1.19 0.61,2.98 0.82,3.97 0.21,1 0.92,4.32 1.59,7.39 0.66,3.07 1.44,6.77 1.74,8.22 0.29,1.46 0.65,3.37 0.81,4.24 0.15,0.88 0.38,2.27 0.49,3.09 0.12,0.82 0.29,2.06 0.36,2.76 0.08,0.7 0.18,1.87 0.22,2.59 0.05,0.77 0.07,1.94 0.04,2.83 -0.02,0.84 -0.09,1.85 -0.14,2.25 -0.06,0.4 -0.16,0.94 -0.22,1.21 -0.06,0.26 -0.19,0.73 -0.3,1.04 -0.1,0.32 -0.3,0.81 -0.45,1.1 -0.15,0.3 -0.42,0.74 -0.61,0.99 -0.18,0.25 -0.54,0.62 -0.79,0.83 -0.25,0.2 -0.69,0.49 -0.97,0.63 -0.28,0.13 -0.76,0.31 -1.06,0.39 -0.31,0.08 -0.93,0.18 -1.38,0.22 -0.45,0.04 -1.12,0.06 -1.48,0.03 -0.36,-0.02 -0.89,-0.09 -1.17,-0.15 -0.28,-0.06 -0.75,-0.22 -1.04,-0.36 -0.35,-0.17 -0.67,-0.39 -0.93,-0.65 -0.21,-0.22 -0.51,-0.63 -0.65,-0.9 -0.14,-0.27 -0.32,-0.75 -0.4,-1.05 -0.08,-0.31 -0.18,-0.92 -0.23,-1.35 -0.05,-0.47 -0.06,-1.19 -0.03,-1.78 0.02,-0.55 0.09,-1.41 0.15,-1.91 0.06,-0.51 0.17,-1.36 0.25,-1.88 0.08,-0.53 0.24,-1.49 0.36,-2.13 0.11,-0.64 0.56,-2.95 0.98,-5.14 0.43,-2.18 0.95,-4.94 1.16,-6.13 0.21,-1.19 0.52,-3.02 0.67,-4.08 0.16,-1.05 0.37,-2.55 0.47,-3.33 0.1,-0.78 0.23,-1.89 0.29,-2.46 0.06,-0.57 0.1,-1.67 0.1,-2.43 0,-0.76 -0.03,-1.7 -0.07,-2.08 -0.04,-0.37 -0.14,-1.05 -0.22,-1.49 -0.07,-0.44 -0.22,-1.17 -0.34,-1.63 -0.11,-0.45 -0.31,-1.14 -0.43,-1.53 -0.12,-0.39 -0.4,-1.16 -0.62,-1.71 -0.21,-0.54 -0.63,-1.48 -0.93,-2.09 -0.3,-0.6 -0.71,-1.37 -0.9,-1.7 -0.19,-0.33 -0.59,-1 -0.9,-1.48 -0.3,-0.48 -0.83,-1.26 -1.17,-1.73 -0.34,-0.48 -0.99,-1.33 -1.44,-1.89 -0.45,-0.57 -1.12,-1.37 -1.48,-1.78 -0.37,-0.41 -1.07,-1.17 -1.57,-1.7 -0.49,-0.53 -1.47,-1.49 -2.16,-2.14 -0.7,-0.65 -1.59,-1.46 -1.98,-1.8 -0.39,-0.34 -1.11,-0.94 -1.59,-1.34 -0.49,-0.4 -1.21,-0.98 -1.6,-1.28 -0.39,-0.31 -1.19,-0.91 -1.77,-1.35 -0.58,-0.43 -1.48,-1.07 -1.98,-1.43 -0.51,-0.35 -1.49,-1.01 -2.18,-1.47 -0.7,-0.45 -1.83,-1.17 -2.52,-1.59 -0.69,-0.42 -1.7,-1.01 -2.24,-1.32 -0.54,-0.3 -0.99,-0.53 -1.01,-0.52 -0.01,0.02 0.29,0.53 0.67,1.13 0.38,0.61 1.05,1.69 1.48,2.41 0.43,0.72 1.11,1.89 1.51,2.62 0.4,0.72 1.07,2.01 1.5,2.87 0.42,0.85 1,2.11 1.29,2.8 0.29,0.68 0.71,1.73 0.93,2.33 0.21,0.6 0.5,1.45 0.64,1.9 0.13,0.44 0.34,1.18 0.45,1.64 0.12,0.45 0.28,1.18 0.36,1.61 0.08,0.42 0.19,1.11 0.25,1.52 0.06,0.41 0.14,1.26 0.18,1.88 0.04,0.62 0.06,1.55 0.03,2.05 -0.02,0.51 -0.09,1.36 -0.15,1.88 -0.06,0.53 -0.2,1.44 -0.32,2.02 -0.11,0.58 -0.32,1.45 -0.45,1.93 -0.14,0.48 -0.36,1.2 -0.5,1.61 -0.13,0.42 -0.39,1.13 -0.57,1.58 -0.18,0.46 -0.58,1.43 -0.9,2.15 -0.31,0.72 -1.12,2.4 -1.79,3.72 -0.67,1.33 -2.05,4.05 -3.06,6.06 -1.02,2.01 -2.17,4.34 -2.56,5.18 -0.39,0.84 -0.97,2.13 -1.29,2.87 -0.32,0.74 -0.88,2.1 -1.24,3.01 -0.36,0.92 -0.87,2.24 -1.12,2.94 -0.25,0.71 -0.7,2.02 -1,2.92 -0.29,0.9 -0.76,2.42 -1.03,3.37 -0.27,0.95 -0.63,2.28 -0.81,2.96 -0.17,0.69 -0.43,1.74 -0.57,2.34 -0.14,0.61 -0.4,1.79 -0.57,2.63 -0.18,0.83 -0.42,2.06 -0.53,2.73 -0.12,0.66 -0.28,1.79 -0.36,2.51 -0.08,0.72 -0.17,1.96 -0.2,2.76 -0.03,0.79 -0.03,2.03 0,2.76 0.03,0.73 0.12,1.82 0.2,2.43 0.07,0.61 0.22,1.49 0.32,1.96 0.1,0.47 0.29,1.24 0.42,1.73 0.13,0.48 0.39,1.29 0.58,1.79 0.18,0.51 0.62,1.48 0.96,2.17 0.34,0.68 0.9,1.67 1.25,2.2 0.34,0.52 0.89,1.29 1.22,1.7 0.32,0.41 1.1,1.26 1.73,1.88 0.63,0.63 1.55,1.47 2.04,1.86 0.5,0.39 1.36,1.02 1.92,1.39 0.55,0.36 1.36,0.87 1.79,1.11 0.42,0.25 1.38,0.74 2.12,1.1 0.74,0.36 1.88,0.86 2.52,1.12 0.65,0.25 1.65,0.62 2.23,0.81 0.59,0.2 1.59,0.51 2.22,0.69 0.64,0.17 1.62,0.43 2.18,0.57 l 1.04,0.25 0.61,-0.48 c 0.34,-0.27 0.99,-0.78 1.43,-1.15 0.45,-0.37 1.27,-1.06 1.82,-1.54 0.56,-0.48 1.51,-1.33 2.13,-1.89 0.62,-0.55 1.75,-1.6 2.51,-2.33 0.77,-0.73 1.98,-1.95 2.7,-2.7 0.71,-0.75 1.81,-1.92 2.43,-2.61 0.62,-0.68 1.65,-1.85 2.29,-2.59 0.63,-0.74 1.62,-1.92 2.19,-2.62 0.56,-0.7 1.61,-2.02 2.32,-2.94 0.72,-0.92 2.07,-2.7 3,-3.97 0.93,-1.27 2.26,-3.08 2.94,-4.04 0.68,-0.95 1.86,-2.63 2.62,-3.72 0.76,-1.09 2.01,-2.89 2.77,-4.01 0.76,-1.11 2.68,-3.93 4.28,-6.27 1.59,-2.34 3.58,-5.24 4.42,-6.45 0.84,-1.21 2.27,-3.25 3.19,-4.54 0.92,-1.28 2.71,-3.73 3.98,-5.42 1.27,-1.7 2.77,-3.64 3.33,-4.33 0.56,-0.68 1.38,-1.67 1.83,-2.19 0.46,-0.53 1.25,-1.44 1.78,-2.02 0.52,-0.59 1.14,-1.26 1.37,-1.5 l 0.42,-0.44 -0.43,-1.3 c -0.23,-0.71 -0.55,-1.71 -0.71,-2.22 -0.16,-0.51 -0.44,-1.48 -0.64,-2.16 -0.19,-0.69 -0.51,-1.85 -0.71,-2.59 -0.19,-0.74 -0.5,-1.95 -0.67,-2.69 -0.17,-0.75 -0.43,-1.88 -0.57,-2.52 -0.13,-0.65 -0.36,-1.78 -0.49,-2.52 -0.14,-0.74 -0.36,-2.08 -0.5,-2.98 -0.14,-0.89 -0.33,-2.33 -0.43,-3.19 -0.1,-0.85 -0.22,-2.18 -0.28,-2.94 -0.06,-0.76 -0.15,-2.21 -0.19,-3.22 -0.05,-1.07 -0.06,-2.65 -0.04,-3.76 0.03,-1.05 0.08,-2.39 0.12,-2.98 0.04,-0.58 0.12,-1.56 0.18,-2.16 0.06,-0.6 0.19,-1.65 0.28,-2.32 0.1,-0.67 0.26,-1.66 0.35,-2.2 0.1,-0.53 0.3,-1.49 0.44,-2.11 0.14,-0.62 0.38,-1.58 0.53,-2.12 0.16,-0.55 0.39,-1.35 0.53,-1.78 0.13,-0.43 0.4,-1.22 0.6,-1.77 0.2,-0.54 0.57,-1.47 0.82,-2.05 0.26,-0.59 0.68,-1.5 0.95,-2.03 0.26,-0.53 0.66,-1.28 0.88,-1.67 0.22,-0.38 0.7,-1.15 1.06,-1.69 0.36,-0.55 0.88,-1.28 1.15,-1.63 0.28,-0.35 0.71,-0.88 0.97,-1.17 0.26,-0.29 0.46,-0.54 0.45,-0.55 -0.02,-0.01 -0.34,0.11 -0.73,0.27 -0.38,0.16 -1.21,0.54 -1.83,0.85 -0.63,0.31 -1.65,0.85 -2.27,1.2 -0.63,0.36 -1.68,1.01 -2.34,1.45 -0.67,0.44 -1.56,1.06 -1.99,1.38 -0.43,0.33 -1.13,0.88 -1.56,1.24 -0.43,0.36 -1.13,0.98 -1.56,1.38 -0.43,0.39 -1.15,1.12 -1.62,1.62 -0.46,0.5 -1.13,1.27 -1.49,1.72 -0.36,0.45 -0.88,1.13 -1.16,1.52 -0.27,0.39 -0.7,1.05 -0.96,1.47 -0.26,0.41 -0.66,1.11 -0.89,1.56 -0.24,0.44 -0.6,1.2 -0.81,1.69 -0.21,0.48 -0.5,1.22 -0.64,1.63 -0.13,0.41 -0.34,1.08 -0.46,1.49 -0.12,0.41 -0.32,1.16 -0.43,1.67 -0.12,0.5 -0.29,1.35 -0.39,1.87 -0.1,0.53 -0.26,1.55 -0.36,2.27 -0.1,0.72 -0.22,1.79 -0.28,2.37 -0.06,0.59 -0.16,1.72 -0.22,2.52 -0.05,0.8 -0.17,2.76 -0.25,4.36 -0.08,1.6 -0.19,3.41 -0.25,4.03 -0.06,0.62 -0.15,1.34 -0.2,1.61 -0.06,0.27 -0.17,0.63 -0.25,0.8 -0.07,0.18 -0.22,0.37 -0.32,0.44 -0.12,0.08 -0.25,0.1 -0.38,0.07 -0.1,-0.03 -0.37,-0.23 -0.58,-0.45 -0.22,-0.22 -0.58,-0.69 -0.81,-1.03 -0.22,-0.34 -0.66,-1.08 -0.97,-1.65 -0.31,-0.56 -0.78,-1.46 -1.05,-2.01 -0.28,-0.54 -0.65,-1.32 -0.83,-1.72 -0.18,-0.4 -0.48,-1.12 -0.67,-1.59 -0.19,-0.48 -0.51,-1.34 -0.71,-1.92 -0.19,-0.58 -0.48,-1.49 -0.64,-2.03 -0.16,-0.53 -0.39,-1.43 -0.52,-1.98 -0.13,-0.55 -0.34,-1.51 -0.46,-2.11 -0.12,-0.61 -0.31,-1.77 -0.43,-2.59 -0.11,-0.82 -0.26,-2.01 -0.32,-2.65 -0.06,-0.65 -0.14,-1.7 -0.18,-2.34 -0.04,-0.65 -0.07,-2.28 -0.07,-3.63 0,-1.35 0.03,-3.02 0.08,-3.72 0.04,-0.7 0.13,-1.97 0.21,-2.83 0.08,-0.85 0.22,-2.15 0.32,-2.87 0.1,-0.72 0.27,-1.87 0.39,-2.57 0.11,-0.69 0.34,-1.88 0.49,-2.65 0.16,-0.77 0.44,-1.99 0.61,-2.72 0.18,-0.72 0.47,-1.8 0.64,-2.41 0.17,-0.6 0.57,-1.85 0.88,-2.77 0.3,-0.93 0.78,-2.24 1.06,-2.93 0.28,-0.69 0.73,-1.73 1,-2.32 0.27,-0.58 0.72,-1.49 0.99,-2 0.28,-0.51 0.74,-1.3 1.03,-1.75 0.29,-0.46 0.75,-1.13 1.03,-1.49 0.28,-0.37 0.6,-0.77 0.72,-0.9 0.11,-0.11 0.17,-0.19 0.16,-0.21 z m -52.67,0.23 c -0.01,-0.01 -0.21,0.32 -0.45,0.74 -0.24,0.42 -0.73,1.35 -1.1,2.07 -0.36,0.72 -0.85,1.73 -1.07,2.23 -0.23,0.51 -0.58,1.31 -0.77,1.78 -0.2,0.46 -0.56,1.39 -0.8,2.06 -0.24,0.67 -0.59,1.69 -0.76,2.27 -0.18,0.58 -0.44,1.5 -0.58,2.05 -0.13,0.54 -0.31,1.32 -0.39,1.73 -0.08,0.41 -0.19,1.06 -0.25,1.45 -0.06,0.39 -0.14,1.12 -0.19,1.63 -0.05,0.57 -0.06,1.49 -0.04,2.38 0.03,0.93 0.09,1.73 0.18,2.23 0.08,0.43 0.21,1.04 0.29,1.35 0.08,0.31 0.2,0.75 0.28,0.96 0.07,0.22 0.24,0.63 0.37,0.92 0.12,0.29 0.37,0.79 0.55,1.1 0.18,0.31 0.6,0.93 0.94,1.38 0.33,0.45 0.87,1.13 1.19,1.52 0.33,0.39 1.02,1.19 1.56,1.77 0.53,0.58 1.49,1.56 2.14,2.16 0.64,0.61 1.6,1.48 2.12,1.93 0.53,0.45 1.28,1.07 1.67,1.38 0.39,0.31 0.98,0.78 1.31,1.03 0.33,0.25 1.02,0.76 1.52,1.13 0.51,0.37 1.53,1.07 2.27,1.56 0.74,0.49 1.8,1.17 2.36,1.51 0.56,0.34 1.39,0.83 1.84,1.08 0.44,0.26 0.82,0.46 0.84,0.44 0.01,-0.01 -0.47,-0.77 -1.08,-1.69 -0.6,-0.91 -1.59,-2.44 -2.18,-3.4 -0.6,-0.95 -1.43,-2.32 -1.84,-3.03 -0.42,-0.71 -1.11,-1.92 -1.54,-2.69 -0.43,-0.77 -1.29,-2.4 -1.91,-3.63 -0.61,-1.23 -1.34,-2.73 -1.61,-3.33 -0.28,-0.61 -0.72,-1.61 -0.98,-2.24 -0.26,-0.62 -0.66,-1.62 -0.9,-2.23 -0.23,-0.6 -0.64,-1.75 -0.91,-2.55 -0.27,-0.8 -0.66,-2.08 -0.87,-2.84 -0.21,-0.76 -0.52,-1.98 -0.67,-2.7 -0.16,-0.71 -0.37,-1.8 -0.47,-2.4 -0.1,-0.61 -0.23,-1.53 -0.29,-2.06 -0.06,-0.52 -0.14,-1.63 -0.18,-2.46 -0.05,-1.03 -0.05,-1.92 0,-2.83 0.04,-0.74 0.12,-1.72 0.18,-2.19 0.06,-0.46 0.14,-1.01 0.17,-1.2 0.04,-0.2 0.06,-0.36 0.05,-0.37 z m 157.25,13.94 c -0.04,0 -0.04,0.09 -0.02,0.2 0.02,0.1 0.15,0.84 0.28,1.64 0.14,0.8 0.36,2.22 0.5,3.16 0.14,0.93 0.35,2.47 0.46,3.4 0.12,0.94 0.28,2.42 0.35,3.3 0.08,0.87 0.19,2.18 0.24,2.9 0.05,0.73 0.09,2.62 0.09,4.22 0,1.75 -0.04,3.36 -0.1,4.04 -0.05,0.63 -0.13,1.55 -0.19,2.06 -0.06,0.51 -0.17,1.34 -0.24,1.84 -0.08,0.51 -0.24,1.4 -0.36,1.99 -0.11,0.58 -0.34,1.55 -0.49,2.16 -0.15,0.6 -0.44,1.61 -0.64,2.23 -0.21,0.63 -0.51,1.5 -0.68,1.95 -0.16,0.45 -0.49,1.27 -0.73,1.83 -0.24,0.55 -0.72,1.58 -1.07,2.28 -0.35,0.69 -0.93,1.79 -1.3,2.43 -0.37,0.63 -0.95,1.59 -1.29,2.13 -0.34,0.54 -1.01,1.53 -1.47,2.2 -0.47,0.67 -1.1,1.54 -1.39,1.93 -0.29,0.39 -1.02,1.31 -1.61,2.06 -0.6,0.74 -1.13,1.38 -1.18,1.42 -0.07,0.06 -0.26,0.02 -0.73,-0.17 -0.35,-0.14 -1,-0.35 -1.45,-0.48 -0.44,-0.14 -1.2,-0.32 -1.7,-0.42 -0.49,-0.09 -1.23,-0.21 -1.64,-0.26 -0.44,-0.06 -1.47,-0.1 -2.55,-0.09 -1.28,0 -2.11,0.04 -2.83,0.12 -0.57,0.07 -1.46,0.21 -1.99,0.31 -0.52,0.09 -1.48,0.3 -2.13,0.46 -0.64,0.16 -1.82,0.5 -2.62,0.77 -0.8,0.26 -1.94,0.68 -2.55,0.92 -0.6,0.25 -1.6,0.68 -2.22,0.96 -0.62,0.29 -1.61,0.78 -2.2,1.1 -0.59,0.32 -1.42,0.79 -1.84,1.04 -0.42,0.26 -0.75,0.48 -0.73,0.49 0.01,0.02 0.45,0.09 0.97,0.17 0.53,0.07 1.35,0.2 1.84,0.28 0.49,0.08 1.34,0.24 1.9,0.36 0.56,0.11 1.6,0.35 2.3,0.53 0.71,0.18 2.04,0.58 2.96,0.88 0.91,0.3 2.24,0.8 2.94,1.1 0.7,0.3 1.76,0.8 2.35,1.1 0.6,0.31 1.5,0.82 2.02,1.14 0.52,0.32 1.24,0.78 1.6,1.03 0.36,0.25 0.99,0.73 1.41,1.06 0.42,0.33 1.15,0.95 1.62,1.38 0.48,0.43 1.22,1.18 1.66,1.65 0.43,0.48 1.02,1.16 1.31,1.52 0.28,0.35 0.78,1.01 1.09,1.45 0.31,0.44 0.77,1.14 1.03,1.55 0.25,0.41 0.68,1.16 0.96,1.66 0.28,0.51 0.68,1.33 0.9,1.81 0.22,0.49 0.61,1.4 0.85,2.02 0.25,0.63 0.59,1.58 0.77,2.13 0.17,0.54 0.45,1.46 0.61,2.05 0.16,0.58 0.3,1.07 0.31,1.08 0.01,0.01 0.47,-0.43 1.01,-0.99 0.54,-0.55 1.24,-1.33 1.56,-1.72 0.31,-0.39 0.76,-0.98 0.99,-1.31 0.24,-0.33 0.63,-0.92 0.87,-1.31 0.24,-0.38 0.64,-1.1 0.89,-1.59 0.25,-0.49 0.6,-1.26 0.78,-1.71 0.17,-0.44 0.42,-1.15 0.53,-1.56 0.12,-0.41 0.28,-1.06 0.36,-1.45 0.07,-0.39 0.17,-1.06 0.21,-1.48 0.04,-0.43 0.08,-1.04 0.08,-1.36 0,-0.32 -0.04,-0.91 -0.08,-1.32 -0.04,-0.4 -0.15,-1.11 -0.24,-1.58 -0.1,-0.47 -0.29,-1.2 -0.43,-1.63 -0.15,-0.43 -0.39,-1.07 -0.54,-1.42 -0.16,-0.35 -0.41,-0.88 -0.57,-1.17 -0.16,-0.29 -0.45,-0.79 -0.65,-1.1 -0.19,-0.31 -0.66,-0.98 -1.04,-1.49 -0.38,-0.5 -0.98,-1.24 -1.34,-1.63 -0.35,-0.39 -0.64,-0.73 -0.64,-0.75 0,-0.03 0.45,-0.41 1.01,-0.86 0.55,-0.45 1.52,-1.25 2.14,-1.79 0.63,-0.53 1.78,-1.57 2.56,-2.3 0.78,-0.73 1.85,-1.79 2.37,-2.35 0.53,-0.56 1.2,-1.29 1.5,-1.63 0.29,-0.33 0.85,-0.98 1.23,-1.45 0.39,-0.47 0.96,-1.2 1.28,-1.63 0.31,-0.43 0.86,-1.21 1.22,-1.74 0.35,-0.52 0.9,-1.4 1.22,-1.95 0.32,-0.54 0.86,-1.56 1.2,-2.26 0.35,-0.7 0.82,-1.76 1.06,-2.34 0.23,-0.59 0.58,-1.55 0.78,-2.14 0.19,-0.6 0.48,-1.59 0.64,-2.2 0.16,-0.62 0.38,-1.6 0.5,-2.18 0.11,-0.59 0.27,-1.54 0.35,-2.11 0.08,-0.58 0.2,-1.56 0.26,-2.18 0.06,-0.62 0.14,-1.97 0.17,-2.99 0.04,-1.14 0.04,-2.67 0,-3.92 -0.04,-1.14 -0.12,-2.7 -0.18,-3.48 -0.06,-0.78 -0.17,-2.01 -0.25,-2.73 -0.07,-0.72 -0.22,-1.95 -0.32,-2.73 -0.1,-0.78 -0.27,-2.06 -0.39,-2.85 -0.11,-0.78 -0.33,-2.18 -0.48,-3.1 -0.16,-0.93 -0.3,-1.7 -0.31,-1.71 -0.02,-0.02 -2.87,-0.22 -6.33,-0.46 -3.47,-0.23 -6.33,-0.42 -6.36,-0.42 z m -49.4,58.57 c -0.33,0 -1.05,0.03 -1.59,0.07 -0.55,0.03 -1.47,0.12 -2.06,0.2 -0.58,0.08 -1.44,0.23 -1.91,0.33 -0.47,0.09 -1.21,0.27 -1.65,0.39 -0.44,0.11 -1.14,0.32 -1.56,0.46 -0.42,0.14 -1.26,0.44 -1.86,0.68 -0.6,0.24 -1.72,0.75 -2.48,1.13 -0.76,0.38 -1.77,0.92 -2.23,1.2 -0.47,0.28 -1.3,0.8 -1.85,1.16 -0.54,0.36 -1.4,0.97 -1.91,1.35 -0.51,0.38 -1.34,1.03 -1.84,1.44 -0.5,0.42 -1.36,1.15 -1.91,1.64 -0.55,0.49 -1.67,1.56 -2.49,2.38 -0.82,0.82 -1.92,1.95 -2.44,2.51 -0.52,0.57 -1.51,1.69 -2.2,2.48 -0.69,0.8 -1.65,1.95 -2.14,2.56 -0.49,0.6 -1.24,1.54 -1.67,2.09 -0.43,0.54 -1.35,1.76 -2.05,2.69 -0.71,0.94 -1.82,2.45 -2.48,3.37 -0.67,0.92 -1.77,2.46 -2.45,3.44 -0.68,0.97 -1.73,2.49 -2.34,3.36 -0.6,0.88 -1.89,2.76 -2.86,4.19 -0.97,1.42 -2.51,3.68 -3.43,5.03 -0.91,1.34 -2.52,3.69 -3.58,5.21 -1.05,1.52 -2.55,3.66 -3.33,4.75 -0.78,1.09 -2.01,2.78 -2.73,3.76 -0.71,0.97 -1.82,2.44 -2.44,3.26 -0.63,0.82 -1.7,2.19 -2.38,3.05 -0.68,0.85 -1.85,2.29 -2.6,3.19 -0.74,0.89 -1.83,2.17 -2.41,2.83 -0.58,0.66 -1.6,1.79 -2.26,2.52 -0.66,0.72 -2.21,2.32 -3.44,3.55 -1.23,1.23 -2.76,2.71 -3.41,3.3 -0.64,0.58 -1.64,1.47 -2.23,1.98 -0.58,0.51 -1.45,1.25 -1.91,1.64 -0.47,0.39 -1.36,1.11 -1.99,1.61 -0.62,0.5 -1.75,1.38 -2.51,1.95 -0.76,0.57 -1.95,1.44 -2.63,1.93 -0.68,0.49 -1.73,1.22 -2.34,1.63 -0.6,0.41 -1.72,1.15 -2.48,1.63 -0.76,0.49 -1.92,1.21 -2.58,1.61 -0.66,0.4 -1.85,1.11 -2.65,1.57 -0.81,0.46 -2.14,1.19 -2.96,1.63 -0.81,0.44 -2.36,1.24 -3.43,1.77 -1.08,0.53 -2.7,1.3 -3.62,1.72 -0.91,0.41 -2.13,0.95 -2.69,1.19 -0.57,0.24 -1.73,0.72 -2.59,1.06 -0.86,0.35 -2.12,0.83 -2.8,1.09 -0.68,0.25 -1.86,0.67 -2.61,0.93 -0.75,0.26 -2.01,0.68 -2.8,0.93 -0.79,0.26 -2.36,0.73 -3.49,1.06 -1.13,0.32 -2.82,0.78 -3.75,1.01 -0.94,0.24 -2.5,0.61 -3.48,0.82 -0.97,0.22 -2.38,0.51 -3.12,0.65 -0.74,0.14 -2.12,0.38 -3.06,0.53 -0.94,0.16 -2.46,0.38 -3.37,0.49 -0.91,0.12 -2.21,0.26 -2.89,0.32 -0.68,0.06 -1.55,0.13 -1.94,0.15 l -0.7,0.05 0.24,0.24 c 0.13,0.14 0.54,0.48 0.91,0.77 0.37,0.28 1.01,0.74 1.42,1.01 0.41,0.27 1.1,0.7 1.52,0.95 0.43,0.26 1.28,0.72 1.88,1.04 0.61,0.31 1.57,0.78 2.15,1.04 0.57,0.25 1.51,0.65 2.09,0.88 0.57,0.23 1.59,0.61 2.26,0.85 0.67,0.23 1.75,0.59 2.41,0.79 0.66,0.2 1.77,0.52 2.47,0.7 0.71,0.19 1.79,0.46 2.4,0.61 0.62,0.14 1.75,0.38 2.52,0.54 0.76,0.15 2.14,0.4 3.05,0.56 0.92,0.15 2.44,0.37 3.37,0.49 0.94,0.12 2.33,0.28 3.09,0.35 0.76,0.08 2.05,0.19 2.87,0.25 0.82,0.06 2.07,0.15 2.78,0.19 0.72,0.04 2.63,0.1 4.26,0.13 1.86,0.05 4.07,0.05 5.96,0 1.66,-0.03 3.67,-0.1 4.47,-0.14 0.8,-0.04 1.98,-0.1 2.62,-0.14 0.65,-0.04 1.99,-0.14 2.98,-0.21 1,-0.08 2.48,-0.21 3.3,-0.29 0.82,-0.07 2.2,-0.22 3.08,-0.32 0.87,-0.09 2.23,-0.28 3.02,-0.42 0.79,-0.13 1.96,-0.36 2.6,-0.5 0.63,-0.14 1.84,-0.42 2.68,-0.63 0.84,-0.21 2,-0.51 2.58,-0.67 0.59,-0.16 1.56,-0.44 2.16,-0.62 0.61,-0.17 1.97,-0.58 3.02,-0.91 1.05,-0.33 2.81,-0.9 3.9,-1.27 1.09,-0.36 2.72,-0.93 3.61,-1.25 0.9,-0.32 2.56,-0.92 3.69,-1.34 1.13,-0.42 2.95,-1.12 4.04,-1.54 1.09,-0.43 2.85,-1.14 3.9,-1.57 1.05,-0.43 2.55,-1.05 3.33,-1.38 0.78,-0.33 2.15,-0.92 3.05,-1.31 0.89,-0.39 2.11,-0.93 2.69,-1.19 0.59,-0.26 1.42,-0.63 1.85,-0.83 0.42,-0.19 1.45,-0.66 2.26,-1.05 0.82,-0.38 2.23,-1.04 3.13,-1.47 0.89,-0.42 3.06,-1.49 4.82,-2.37 1.75,-0.88 4.04,-2.05 5.1,-2.6 1.05,-0.56 2.33,-1.24 2.83,-1.51 0.51,-0.28 1.67,-0.92 2.59,-1.42 0.92,-0.51 2.51,-1.41 3.55,-2 1.03,-0.6 2.72,-1.58 3.75,-2.2 1.04,-0.62 2.81,-1.7 3.94,-2.41 1.13,-0.71 2.76,-1.74 3.61,-2.3 0.86,-0.56 2.1,-1.39 2.77,-1.84 0.66,-0.45 1.94,-1.33 2.83,-1.96 0.9,-0.63 2.26,-1.6 3.03,-2.16 0.76,-0.57 1.91,-1.43 2.55,-1.91 0.64,-0.49 1.89,-1.48 2.79,-2.19 0.89,-0.72 2.22,-1.81 2.94,-2.42 0.72,-0.61 1.77,-1.52 2.34,-2.03 0.56,-0.5 1.49,-1.34 2.05,-1.87 0.57,-0.52 1.8,-1.71 2.73,-2.65 0.94,-0.94 2.19,-2.24 2.77,-2.88 0.59,-0.64 1.46,-1.63 1.94,-2.19 0.48,-0.56 1.23,-1.47 1.67,-2.02 0.44,-0.55 1.12,-1.43 1.51,-1.96 0.39,-0.52 1.08,-1.5 1.52,-2.16 0.45,-0.66 1.08,-1.62 1.39,-2.14 0.32,-0.51 0.8,-1.32 1.07,-1.81 0.27,-0.49 0.73,-1.36 1.02,-1.94 0.29,-0.58 0.71,-1.47 0.94,-1.97 0.22,-0.51 0.54,-1.27 0.7,-1.7 0.17,-0.44 0.47,-1.28 0.67,-1.89 0.19,-0.6 0.47,-1.53 0.61,-2.05 0.14,-0.53 0.33,-1.35 0.42,-1.82 0.1,-0.48 0.24,-1.34 0.32,-1.92 0.08,-0.58 0.18,-1.43 0.22,-1.9 0.04,-0.47 0.07,-1.41 0.07,-2.1 0,-0.68 -0.03,-1.66 -0.07,-2.16 -0.04,-0.5 -0.12,-1.27 -0.18,-1.69 -0.06,-0.43 -0.17,-1.12 -0.25,-1.53 -0.08,-0.41 -0.27,-1.22 -0.42,-1.81 -0.15,-0.58 -0.39,-1.41 -0.53,-1.84 -0.15,-0.43 -0.44,-1.23 -0.65,-1.77 -0.22,-0.55 -0.69,-1.6 -1.06,-2.34 -0.37,-0.74 -0.96,-1.83 -1.32,-2.43 -0.36,-0.59 -0.98,-1.55 -1.38,-2.12 -0.4,-0.58 -1.08,-1.5 -1.53,-2.06 -0.44,-0.55 -1.21,-1.45 -1.7,-1.99 -0.49,-0.54 -1.3,-1.37 -1.8,-1.84 -0.5,-0.47 -1.26,-1.15 -1.69,-1.51 -0.43,-0.35 -1.13,-0.91 -1.56,-1.23 -0.43,-0.32 -1.21,-0.87 -1.74,-1.23 -0.52,-0.35 -1.32,-0.85 -1.77,-1.11 -0.45,-0.27 -1.36,-0.77 -2.02,-1.11 -0.66,-0.34 -1.72,-0.85 -2.34,-1.12 -0.63,-0.26 -1.65,-0.68 -2.27,-0.91 -0.62,-0.24 -1.49,-0.54 -1.93,-0.69 -0.43,-0.13 -1.3,-0.39 -1.93,-0.57 -0.63,-0.18 -1.76,-0.46 -2.5,-0.63 -0.75,-0.17 -1.67,-0.36 -2.04,-0.43 -0.37,-0.06 -1.07,-0.16 -1.56,-0.21 -0.49,-0.06 -1.41,-0.14 -2.05,-0.18 -0.65,-0.04 -1.44,-0.07 -1.78,-0.06 z m 7.02,6.51 3.48,2.73 c 1.91,1.51 3.47,2.76 3.47,2.79 0,0.03 -0.17,0.14 -0.37,0.25 -0.21,0.11 -0.82,0.46 -1.37,0.77 -0.54,0.32 -1.53,0.91 -2.2,1.32 -0.66,0.41 -1.78,1.13 -2.48,1.6 -0.7,0.48 -1.69,1.16 -2.19,1.52 -0.51,0.37 -1.33,0.97 -1.81,1.34 -0.49,0.37 -1.21,0.93 -1.6,1.25 -0.39,0.31 -1.08,0.87 -1.54,1.26 l -0.83,0.69 -3.21,-3.7 c -1.76,-2.04 -3.91,-4.52 -4.76,-5.51 -0.86,-0.99 -1.56,-1.82 -1.56,-1.84 0.01,-0.02 0.42,-0.24 0.92,-0.5 0.51,-0.26 1.32,-0.66 1.81,-0.87 0.49,-0.22 1.21,-0.53 1.6,-0.68 0.39,-0.16 1.23,-0.46 1.87,-0.67 0.64,-0.22 1.74,-0.54 2.45,-0.71 0.71,-0.18 1.74,-0.41 2.3,-0.51 0.57,-0.09 1.42,-0.22 1.91,-0.29 0.49,-0.06 1.28,-0.13 1.77,-0.16 0.49,-0.04 1.22,-0.07 1.62,-0.07 z m -28.49,13.04 c 0.03,0 2.38,2.67 5.24,5.93 l 5.18,5.92 -1.26,1.29 c -0.7,0.71 -1.76,1.81 -2.37,2.46 -0.61,0.64 -1.69,1.8 -2.41,2.58 -0.72,0.78 -2.01,2.2 -2.87,3.16 -0.86,0.95 -2.29,2.56 -3.19,3.58 -0.9,1.01 -2.84,3.23 -4.32,4.93 -1.48,1.69 -3.68,4.21 -4.89,5.6 -1.21,1.38 -2.96,3.37 -3.9,4.43 -0.93,1.05 -2.29,2.56 -3.01,3.36 -0.72,0.8 -1.97,2.16 -2.76,3.02 -0.8,0.85 -2.46,2.61 -3.7,3.89 -1.25,1.29 -3.21,3.26 -4.37,4.37 -1.16,1.12 -2.51,2.4 -3,2.85 -0.48,0.45 -0.9,0.8 -0.93,0.79 -0.02,-0.02 -1.28,-1.5 -2.78,-3.29 l -2.74,-3.26 1.22,-1.47 c 0.68,-0.81 1.81,-2.19 2.51,-3.07 0.7,-0.88 1.73,-2.18 2.27,-2.9 0.55,-0.73 1.28,-1.72 1.64,-2.2 0.35,-0.49 0.97,-1.37 1.38,-1.95 0.41,-0.59 1.51,-2.21 2.44,-3.62 0.94,-1.4 2.46,-3.73 3.39,-5.17 0.93,-1.44 2.36,-3.66 3.18,-4.93 0.82,-1.27 2.23,-3.42 3.13,-4.78 0.9,-1.37 2.18,-3.27 2.84,-4.22 0.66,-0.96 1.64,-2.36 2.19,-3.12 0.54,-0.76 1.47,-2.02 2.05,-2.8 0.59,-0.78 1.47,-1.93 1.96,-2.55 0.49,-0.63 1.39,-1.74 2.01,-2.48 0.62,-0.75 1.59,-1.88 2.16,-2.52 0.57,-0.65 1.63,-1.77 2.35,-2.5 0.71,-0.73 1.33,-1.33 1.36,-1.33 z m -46.4,60.4 c 0.05,0 1.12,1.23 2.39,2.73 l 2.31,2.73 -0.69,0.49 c -0.39,0.27 -1.4,0.95 -2.25,1.51 -0.86,0.56 -2.03,1.31 -2.62,1.67 -0.58,0.35 -1.59,0.93 -2.23,1.29 -0.64,0.37 -2.02,1.08 -3.05,1.59 -1.03,0.51 -2.47,1.18 -3.19,1.49 -0.72,0.31 -1.9,0.78 -2.62,1.05 -0.72,0.27 -1.92,0.68 -2.66,0.91 -0.74,0.23 -1.89,0.57 -2.55,0.74 -0.67,0.17 -1.41,0.36 -1.66,0.42 -0.36,0.08 -0.43,0.08 -0.36,0.01 0.06,-0.05 0.85,-0.69 1.77,-1.43 0.92,-0.73 2.41,-1.95 3.32,-2.71 0.92,-0.76 2.54,-2.13 3.62,-3.06 1.07,-0.92 2.58,-2.23 3.34,-2.91 0.76,-0.68 2.05,-1.84 2.87,-2.59 0.82,-0.75 2.09,-1.93 2.83,-2.64 0.75,-0.7 1.39,-1.28 1.43,-1.29 z m 378.61,90.24 c -22.9,0 -37.59,11.81 -37.59,29.95 0,20.6 16.71,25.49 31.4,29.81 10.65,3.17 19.87,5.91 19.87,14.26 0,6.34 -5.04,10.08 -13.54,10.08 -10.51,0 -24.91,-6.19 -34.7,-14.83 l -8.64,18.14 c 11.66,9.8 27.65,15.7 43.06,15.7 22.89,0 37.73,-11.95 37.73,-30.39 0,-21.17 -16.85,-26.35 -31.83,-30.82 l -0.14,-0.28 c -10.37,-3.17 -19.45,-5.91 -19.45,-13.97 0,-5.33 4.32,-8.5 11.67,-8.5 7.92,0 20.3,4.18 30.53,10.23 l 8.5,-18.58 c -10.08,-6.77 -23.76,-10.8 -36.87,-10.8 z m -688.32,0.57 c -31.11,0 -54.58,22.04 -54.58,51.13 0,7.2 1.44,13.97 4.03,20.16 6.92,-52.85 50.84,-51.56 50.84,-51.56 v 0.15 c 9.94,0 19.3,4.89 25.2,12.67 l 20.88,-9.36 c -9.5,-14.11 -26.35,-23.19 -46.37,-23.19 z m 555.72,0.43 v 19.01 h 80.8 V 427.9 Z m -491.65,0.15 v 100.81 h 22.61 V 428.05 Z m 64.8,0 v 42.34 h -25.2 l -2.89,18.43 h 28.09 v 40.04 h 22.61 V 428.05 Z m 44.5,0 v 100.81 h 22.61 V 428.05 Z m 200.06,0 v 100.81 h 22.61 V 428.05 Z m 44.75,0 v 100.81 h 46.52 c 22.32,0 36.15,-10.51 36.15,-27.51 0,-12.81 -7.49,-22.61 -19.16,-25.06 v 0.15 l -4.03,-0.87 4.03,-1.15 c 9.79,-2.88 15.84,-11.23 15.84,-21.6 0,-15.27 -13.25,-24.77 -34.56,-24.77 z m 101,0 v 100.81 h 22.61 V 428.05 Z m -301.21,0.14 V 529 h 63.66 v -19.73 l -41.05,-0.14 v -80.94 z m 77.66,0 V 529 h 63.65 v -19.73 l -41.04,-0.14 v -80.94 z m 144.87,17.72 h 21.03 c 7.92,0 12.82,4.46 12.82,11.52 0,7.2 -5.04,11.81 -12.82,11.81 h -21.03 z m 154.04,8.68 c -3.16,0.11 -6.58,1.09 -9.87,3.7 h -0.14 v 70.42 h 22.61 v -70.42 c 0,0 -5.65,-3.95 -12.6,-3.7 z m -626.37,24.15 c -2.3,5.62 -6.05,15.99 -2.59,27.08 1.01,3.45 3.89,10.8 12.24,17.71 3.03,2.45 6.34,4.18 9.8,5.47 3.88,0.87 8.06,1.3 12.38,1.3 19.87,0 36.58,-9.08 46.09,-23.19 l -20.74,-9.22 c -5.91,7.78 -15.27,12.68 -25.06,12.68 l 0.14,-0.29 c -16.56,0 -32.11,-14.11 -32.26,-31.54 z m 472.33,7.2 h 21.03 c 9.79,0 15.84,4.76 15.84,12.24 0,7.78 -6.05,12.68 -15.84,12.68 h -21.03 z m -154.88,62.35 c -2.97,0 -5.27,0.81 -6.9,2.44 -1.63,1.61 -2.44,3.78 -2.44,6.49 v 19.72 c 0,0.27 0.14,0.4 0.42,0.4 h 2.83 c 0.28,0 0.42,-0.13 0.42,-0.4 v -15.46 h 8.27 c 0.28,0 0.42,-0.13 0.42,-0.39 v -2.05 c -0.01,-0.26 -0.15,-0.39 -0.42,-0.39 h -8.27 v -1.43 c 0,-4.06 2.03,-6.09 6.09,-6.09 1.91,0 3.53,0.32 4.88,0.97 0.27,0.12 0.4,0.01 0.4,-0.32 v -2 c 0,-0.21 -0.13,-0.39 -0.4,-0.52 -1.36,-0.65 -3.13,-0.97 -5.3,-0.97 z m -340.73,0.59 c -0.25,0 -0.38,0.08 -0.38,0.24 0,0.06 0.01,0.11 0.04,0.18 l 8.45,26.83 c 0.28,0.81 0.9,1.21 1.85,1.21 h 1.21 c 0.49,0 0.89,-0.12 1.21,-0.36 0.33,-0.24 0.54,-0.52 0.61,-0.85 l 6.2,-22.13 6.21,22.13 c 0.08,0.32 0.28,0.6 0.59,0.85 0.33,0.24 0.74,0.36 1.23,0.36 h 1.21 c 0.97,0 1.58,-0.4 1.85,-1.21 l 8.41,-26.83 c 0.11,-0.28 0,-0.42 -0.33,-0.42 h -2.76 c -0.33,0.02 -0.54,0.16 -0.62,0.42 l -7.18,23.16 -6.27,-22.34 c -0.08,-0.34 -0.28,-0.62 -0.6,-0.86 -0.3,-0.25 -0.65,-0.38 -1.03,-0.38 h -1.41 c -0.38,0 -0.73,0.13 -1.05,0.38 -0.3,0.24 -0.5,0.52 -0.58,0.86 l -6.31,22.34 -7.18,-23.16 c -0.08,-0.28 -0.28,-0.42 -0.62,-0.42 z m 100.74,0 c -0.28,0.02 -0.41,0.16 -0.41,0.42 v 6.91 l -0.78,-0.32 c -0.47,-0.2 -1.22,-0.4 -2.24,-0.6 -1.02,-0.2 -2.04,-0.29 -3.08,-0.29 -3.05,0 -5.54,0.99 -7.48,2.97 -1.91,1.97 -2.87,4.82 -2.87,8.54 0,3.7 0.93,6.54 2.79,8.51 1.88,1.96 4.27,2.94 7.17,2.94 1.56,0 2.96,-0.38 4.19,-1.14 0.47,-0.27 0.97,-0.64 1.48,-1.09 0.53,-0.46 0.88,-0.8 1.04,-1.03 l 0.35,2.24 c 0.04,0.27 0.19,0.4 0.46,0.4 h 2.22 c 0.28,0 0.42,-0.13 0.42,-0.4 V 549.3 c -0.01,-0.28 -0.15,-0.42 -0.42,-0.42 z m 95.17,0 c -0.26,0 -0.39,0.14 -0.39,0.42 v 27.64 c 0,0.27 0.13,0.4 0.39,0.4 H 320 c 0.27,0 0.4,-0.13 0.4,-0.4 V 549.3 c 0,-0.28 -0.13,-0.42 -0.4,-0.42 z m 156.93,0 c -0.27,0 -0.4,0.14 -0.4,0.42 v 19.71 c 0,2.68 0.77,4.84 2.3,6.48 1.55,1.64 3.63,2.47 6.24,2.47 1.89,0 3.51,-0.28 4.88,-0.82 0.26,-0.13 0.39,-0.31 0.39,-0.53 v -1.99 c 0,-0.33 -0.13,-0.44 -0.39,-0.33 l -0.58,0.21 c -1.15,0.4 -2.45,0.6 -3.91,0.6 -1.65,0 -2.95,-0.51 -3.89,-1.53 -0.92,-1.03 -1.39,-2.55 -1.39,-4.56 v -10.56 h 8.3 c 0.26,0 0.39,-0.14 0.39,-0.42 v -2.02 c 0,-0.28 -0.13,-0.42 -0.39,-0.42 h -8.3 v -6.29 c 0,-0.28 -0.13,-0.42 -0.39,-0.42 z m 183.91,0 c -0.54,0 -0.81,0.27 -0.81,0.82 v 2.64 c 0,0.3 0.06,0.51 0.18,0.63 0.13,0.12 0.34,0.18 0.63,0.18 h 2.64 c 0.3,0 0.51,-0.06 0.63,-0.18 0.12,-0.12 0.18,-0.33 0.18,-0.63 v -2.64 c 0,-0.29 -0.06,-0.5 -0.18,-0.62 -0.12,-0.13 -0.33,-0.2 -0.63,-0.2 z m 13.49,0 c -0.26,0 -0.39,0.14 -0.39,0.42 v 19.71 c 0,2.68 0.76,4.84 2.3,6.48 1.55,1.64 3.62,2.47 6.23,2.47 1.89,0 3.52,-0.28 4.88,-0.82 0.27,-0.13 0.4,-0.31 0.4,-0.53 v -1.99 c 0,-0.33 -0.13,-0.44 -0.4,-0.33 l -0.57,0.21 c -1.15,0.4 -2.46,0.6 -3.91,0.6 -1.66,0 -2.95,-0.51 -3.89,-1.53 -0.93,-1.03 -1.39,-2.55 -1.39,-4.56 v -10.56 h 8.29 c 0.27,0 0.4,-0.14 0.4,-0.42 v -2.02 c 0,-0.28 -0.13,-0.42 -0.4,-0.42 h -8.29 v -6.29 c 0,-0.28 -0.13,-0.42 -0.4,-0.42 z m 21.04,0 c -0.27,0 -0.4,0.14 -0.4,0.42 v 27.64 c 0,0.27 0.13,0.4 0.4,0.4 h 2.86 c 0.26,0 0.39,-0.13 0.39,-0.4 V 561.7 c 0,-0.09 0.26,-0.43 0.78,-1.01 0.51,-0.58 1.33,-1.2 2.46,-1.86 1.12,-0.67 2.28,-1 3.47,-1 1.71,0 3.12,0.59 4.23,1.75 1.11,1.16 1.66,2.82 1.66,4.96 v 12.4 c 0,0.27 0.14,0.4 0.4,0.4 h 2.86 c 0.26,0 0.4,-0.13 0.4,-0.4 v -12.4 c 0,-2.98 -0.88,-5.31 -2.62,-7 -1.75,-1.7 -3.99,-2.54 -6.73,-2.54 -1.63,0 -3.08,0.34 -4.37,1.03 -0.5,0.28 -1.02,0.64 -1.56,1.09 -0.55,0.45 -0.87,0.75 -0.98,0.91 v -8.73 c 0,-0.28 -0.13,-0.42 -0.39,-0.42 z m 149.7,0 c -0.54,0 -0.81,0.27 -0.81,0.82 v 2.64 c 0,0.3 0.06,0.51 0.17,0.63 0.14,0.12 0.35,0.18 0.64,0.18 h 2.64 c 0.3,0 0.52,-0.06 0.63,-0.18 0.12,-0.12 0.18,-0.33 0.18,-0.63 v -2.64 c 0,-0.29 -0.06,-0.5 -0.18,-0.62 -0.11,-0.13 -0.33,-0.2 -0.63,-0.2 z M 175.44,555 c -3.12,0 -5.66,0.98 -7.6,2.95 -1.93,1.96 -2.9,4.79 -2.9,8.5 0,3.69 0.97,6.54 2.9,8.55 1.94,2 4.39,3 7.34,3 2.95,0 5.27,-0.59 6.95,-1.75 1.68,-1.17 2.79,-2.73 3.33,-4.68 0.08,-0.32 -0.05,-0.48 -0.4,-0.48 h -2.56 c -0.17,0 -0.33,0.13 -0.49,0.4 -1.35,2.43 -3.52,3.65 -6.51,3.65 -1.89,0 -3.45,-0.61 -4.68,-1.83 -1.23,-1.21 -1.96,-3.05 -2.19,-5.52 h 16.63 c 0.55,0 0.82,-0.27 0.82,-0.81 v -1.01 c 0,-3.31 -1,-5.96 -2.98,-7.96 C 181.13,556 178.57,555 175.44,555 Z m 68.66,0 c -3.12,0 -5.66,0.98 -7.6,2.95 -1.93,1.96 -2.9,4.79 -2.9,8.5 0,3.69 0.97,6.54 2.9,8.55 1.94,2 4.39,3 7.34,3 2.95,0 5.27,-0.59 6.95,-1.75 1.68,-1.17 2.79,-2.73 3.33,-4.68 0.08,-0.32 -0.05,-0.48 -0.4,-0.48 h -2.56 c -0.17,0 -0.33,0.13 -0.49,0.4 -1.35,2.43 -3.52,3.65 -6.51,3.65 -1.89,0 -3.45,-0.61 -4.68,-1.83 -1.23,-1.21 -1.96,-3.05 -2.19,-5.52 h 16.63 c 0.54,0 0.82,-0.27 0.82,-0.81 v -1.01 c 0,-3.31 -1,-5.96 -2.98,-7.96 C 249.79,556 247.23,555 244.1,555 Z m 53.58,0 c -3.12,0 -5.66,0.98 -7.6,2.95 -1.93,1.96 -2.9,4.79 -2.9,8.5 0,3.69 0.97,6.54 2.9,8.55 1.94,2 4.39,3 7.34,3 2.95,0 5.27,-0.59 6.95,-1.75 1.68,-1.17 2.79,-2.73 3.33,-4.68 0.08,-0.32 -0.05,-0.48 -0.4,-0.48 h -2.56 c -0.17,0 -0.34,0.13 -0.49,0.4 -1.35,2.43 -3.52,3.65 -6.51,3.65 -1.9,0 -3.46,-0.61 -4.69,-1.83 -1.23,-1.21 -1.95,-3.05 -2.18,-5.52 h 16.63 c 0.54,0 0.81,-0.27 0.81,-0.81 v -1.01 c 0,-3.31 -0.99,-5.96 -2.97,-7.96 C 303.37,556 300.81,555 297.68,555 Z m 41.73,0 c -3.16,0 -5.72,0.98 -7.66,2.95 -1.93,1.96 -2.9,4.79 -2.9,8.5 0,3.69 0.97,6.53 2.9,8.53 1.94,1.98 4.5,2.98 7.66,2.98 3.17,0 5.73,-1 7.66,-2.98 1.94,-2 2.92,-4.84 2.92,-8.53 0,-3.71 -0.98,-6.54 -2.92,-8.5 -1.93,-1.97 -4.49,-2.95 -7.66,-2.95 z m 29.17,0 c -1.57,0 -2.98,0.37 -4.21,1.11 -0.47,0.28 -0.98,0.65 -1.5,1.11 -0.52,0.45 -0.85,0.79 -1,1.01 l -0.38,-2.22 c -0.02,-0.28 -0.17,-0.42 -0.43,-0.42 h -2.24 c -0.27,0.01 -0.4,0.15 -0.4,0.42 v 27.62 c 0,0.27 0.13,0.4 0.4,0.42 h 2.85 c 0.27,-0.02 0.4,-0.15 0.4,-0.42 v -6.91 l 0.73,0.3 c 0.52,0.22 1.28,0.42 2.29,0.62 1.01,0.21 2.04,0.32 3.07,0.32 3.07,0 5.57,-1 7.48,-2.98 1.94,-1.99 2.9,-4.83 2.9,-8.53 0,-3.71 -0.94,-6.54 -2.82,-8.5 -1.86,-1.97 -4.24,-2.95 -7.14,-2.95 z m 38.04,0 c -2.82,0 -5.03,0.57 -6.65,1.7 -1.61,1.14 -2.42,2.6 -2.42,4.39 0,3.13 2.17,5.23 6.51,6.29 l 5.08,1.23 c 1.56,0.37 2.66,0.83 3.29,1.39 0.65,0.54 0.98,1.24 0.98,2.1 0,0.86 -0.47,1.58 -1.41,2.14 -0.94,0.57 -2.37,0.86 -4.29,0.86 -3.39,0 -5.75,-1.22 -7.1,-3.65 -0.17,-0.27 -0.34,-0.4 -0.5,-0.4 h -2.56 c -0.29,0 -0.43,0.11 -0.43,0.32 0,0.04 0,0.09 0.01,0.16 0.55,1.98 1.7,3.55 3.48,4.7 1.78,1.15 4.15,1.73 7.1,1.73 2.95,0 5.25,-0.57 6.89,-1.71 1.64,-1.14 2.46,-2.6 2.46,-4.39 0,-3.17 -2.17,-5.28 -6.51,-6.31 l -5.08,-1.21 c -1.56,-0.38 -2.67,-0.84 -3.32,-1.39 -0.63,-0.54 -0.95,-1.23 -0.95,-2.08 0,-0.86 0.47,-1.58 1.39,-2.16 0.93,-0.59 2.3,-0.88 4.11,-0.88 3.12,0 5.36,1.22 6.71,3.65 0.15,0.28 0.31,0.42 0.47,0.42 h 2.56 c 0.36,0 0.5,-0.16 0.42,-0.49 -0.54,-1.95 -1.68,-3.5 -3.41,-4.67 -1.74,-1.16 -4.01,-1.74 -6.83,-1.74 z m 27.4,0 c -3.16,0 -5.71,0.98 -7.65,2.95 -1.94,1.96 -2.9,4.79 -2.9,8.5 0,3.69 0.96,6.53 2.9,8.53 1.94,1.98 4.49,2.98 7.65,2.98 3.18,0 5.73,-1 7.66,-2.98 1.95,-2 2.92,-4.84 2.92,-8.53 0,-3.71 -0.97,-6.54 -2.92,-8.5 -1.93,-1.97 -4.48,-2.95 -7.66,-2.95 z m 105.47,0 c -2.4,0 -4.38,0.55 -5.91,1.66 -1.53,1.12 -2.41,2.59 -2.62,4.43 -0.03,0.26 0.11,0.39 0.42,0.39 h 2.56 c 0.24,0 0.39,-0.13 0.47,-0.39 0.33,-0.95 0.94,-1.74 1.83,-2.34 0.9,-0.61 1.98,-0.92 3.25,-0.92 4.08,0 6.12,2.03 6.12,6.1 v 0.19 h -6.93 c -2.82,0 -5.01,0.63 -6.59,1.87 -1.56,1.23 -2.34,2.92 -2.34,5.06 0,2.13 0.76,3.82 2.28,5.06 1.54,1.23 3.62,1.85 6.25,1.85 1.8,0 3.42,-0.38 4.84,-1.14 0.55,-0.27 1.09,-0.63 1.63,-1.07 0.54,-0.45 0.9,-0.8 1.05,-1.05 l 0.36,2.24 c 0.04,0.27 0.19,0.4 0.46,0.4 h 2.22 c 0.28,0 0.42,-0.13 0.42,-0.4 v -13.01 c 0,-2.85 -0.84,-5.04 -2.52,-6.59 -1.68,-1.56 -4.1,-2.34 -7.25,-2.34 z m 49.33,0 c -3.12,0 -5.65,0.98 -7.6,2.95 -1.93,1.96 -2.89,4.79 -2.89,8.5 0,3.69 0.96,6.54 2.89,8.55 1.95,2 4.4,3 7.35,3 2.95,0 5.26,-0.59 6.94,-1.75 1.68,-1.17 2.79,-2.73 3.34,-4.68 0.08,-0.32 -0.06,-0.48 -0.4,-0.48 h -2.56 c -0.17,0 -0.34,0.13 -0.5,0.4 -1.35,2.43 -3.52,3.65 -6.51,3.65 -1.89,0 -3.45,-0.61 -4.68,-1.83 -1.23,-1.21 -1.96,-3.05 -2.18,-5.52 h 16.63 c 0.54,0 0.81,-0.27 0.81,-0.81 v -1.01 c 0,-3.31 -0.99,-5.96 -2.98,-7.96 C 594.51,556 591.96,555 588.82,555 Z m 155.2,0 c -1.57,0 -2.97,0.37 -4.2,1.11 -0.48,0.28 -0.98,0.65 -1.51,1.11 -0.52,0.45 -0.85,0.79 -0.99,1.01 l -0.38,-2.22 c -0.03,-0.28 -0.17,-0.42 -0.44,-0.42 h -2.24 c -0.26,0.01 -0.4,0.15 -0.4,0.42 v 27.62 c 0,0.27 0.14,0.4 0.4,0.42 h 2.86 c 0.26,-0.02 0.39,-0.15 0.39,-0.42 v -6.91 l 0.74,0.3 c 0.51,0.22 1.28,0.42 2.28,0.62 1.02,0.21 2.04,0.32 3.08,0.32 3.06,0 5.56,-1 7.48,-2.98 1.93,-1.99 2.89,-4.83 2.89,-8.53 0,-3.71 -0.94,-6.54 -2.81,-8.5 -1.87,-1.97 -4.25,-2.95 -7.15,-2.95 z m 26.45,0 c -2.4,0 -4.37,0.55 -5.91,1.66 -1.53,1.12 -2.41,2.59 -2.62,4.43 -0.03,0.26 0.12,0.39 0.42,0.39 h 2.56 c 0.24,0 0.4,-0.13 0.47,-0.39 0.34,-0.95 0.94,-1.74 1.83,-2.34 0.9,-0.61 1.98,-0.92 3.25,-0.92 4.08,0 6.12,2.03 6.12,6.1 v 0.19 h -6.93 c -2.82,0 -5.01,0.63 -6.59,1.87 -1.56,1.23 -2.34,2.92 -2.34,5.06 0,2.13 0.76,3.82 2.28,5.06 1.54,1.23 3.62,1.85 6.25,1.85 1.8,0 3.42,-0.38 4.85,-1.14 0.54,-0.27 1.08,-0.63 1.62,-1.07 0.54,-0.45 0.9,-0.8 1.06,-1.05 l 0.35,2.24 c 0.04,0.27 0.19,0.4 0.46,0.4 h 2.22 c 0.28,0 0.42,-0.13 0.42,-0.4 v -13.01 c 0,-2.85 -0.84,-5.04 -2.52,-6.59 -1.68,-1.56 -4.1,-2.34 -7.25,-2.34 z m 26.91,0 c -2.81,0 -5.03,0.57 -6.65,1.7 -1.61,1.14 -2.42,2.6 -2.42,4.39 0,3.13 2.17,5.23 6.51,6.29 l 5.08,1.23 c 1.56,0.37 2.66,0.83 3.3,1.39 0.65,0.54 0.97,1.24 0.97,2.1 0,0.86 -0.47,1.58 -1.41,2.14 -0.94,0.57 -2.37,0.86 -4.29,0.86 -3.38,0 -5.75,-1.22 -7.1,-3.65 -0.17,-0.27 -0.34,-0.4 -0.49,-0.4 h -2.57 c -0.29,0 -0.43,0.11 -0.43,0.32 0,0.04 0,0.09 0.02,0.16 0.54,1.98 1.7,3.55 3.47,4.7 1.79,1.15 4.15,1.73 7.1,1.73 2.95,0 5.25,-0.57 6.89,-1.71 1.64,-1.14 2.46,-2.6 2.46,-4.39 0,-3.17 -2.17,-5.28 -6.51,-6.31 l -5.08,-1.21 c -1.56,-0.38 -2.66,-0.84 -3.31,-1.39 -0.64,-0.54 -0.96,-1.23 -0.96,-2.08 0,-0.86 0.47,-1.58 1.4,-2.16 0.92,-0.59 2.29,-0.88 4.1,-0.88 3.12,0 5.36,1.22 6.71,3.65 0.16,0.28 0.32,0.42 0.48,0.42 h 2.56 c 0.35,0 0.49,-0.16 0.41,-0.49 -0.54,-1.95 -1.68,-3.5 -3.41,-4.67 -1.73,-1.16 -4.01,-1.74 -6.83,-1.74 z m 25.96,0 c -2.82,0 -5.03,0.57 -6.65,1.7 -1.61,1.14 -2.42,2.6 -2.42,4.39 0,3.13 2.17,5.23 6.51,6.29 l 5.08,1.23 c 1.56,0.37 2.66,0.83 3.29,1.39 0.65,0.54 0.97,1.24 0.97,2.1 0,0.86 -0.46,1.58 -1.4,2.14 -0.94,0.57 -2.37,0.86 -4.29,0.86 -3.39,0 -5.75,-1.22 -7.1,-3.65 -0.18,-0.27 -0.34,-0.4 -0.5,-0.4 h -2.56 c -0.29,0 -0.44,0.11 -0.44,0.32 0,0.04 0.01,0.09 0.02,0.16 0.55,1.98 1.7,3.55 3.48,4.7 1.78,1.15 4.15,1.73 7.1,1.73 2.95,0 5.25,-0.57 6.89,-1.71 1.64,-1.14 2.46,-2.6 2.46,-4.39 0,-3.17 -2.17,-5.28 -6.51,-6.31 l -5.08,-1.21 c -1.56,-0.38 -2.67,-0.84 -3.32,-1.39 -0.63,-0.54 -0.95,-1.23 -0.95,-2.08 0,-0.86 0.46,-1.58 1.39,-2.16 0.93,-0.59 2.3,-0.88 4.11,-0.88 3.12,0 5.36,1.22 6.7,3.65 0.16,0.28 0.32,0.42 0.48,0.42 h 2.56 c 0.36,0 0.5,-0.16 0.42,-0.49 -0.54,-1.95 -1.68,-3.5 -3.42,-4.67 -1.73,-1.16 -4,-1.74 -6.82,-1.74 z m 40.9,0 c -3.17,0 -5.72,0.98 -7.66,2.95 -1.94,1.96 -2.9,4.79 -2.9,8.5 0,3.69 0.96,6.53 2.9,8.53 1.94,1.98 4.49,2.98 7.66,2.98 3.17,0 5.73,-1 7.66,-2.98 1.94,-2 2.91,-4.84 2.91,-8.53 0,-3.71 -0.97,-6.54 -2.91,-8.5 -1.93,-1.97 -4.49,-2.95 -7.66,-2.95 z m 29.56,0 c -1.72,0 -3.22,0.37 -4.52,1.11 -0.5,0.28 -1.02,0.65 -1.55,1.11 -0.53,0.45 -0.87,0.79 -1.03,1.01 l -0.38,-2.22 c -0.02,-0.28 -0.17,-0.42 -0.43,-0.42 h -2.25 c -0.26,0 -0.39,0.14 -0.39,0.42 v 20.93 c 0,0.27 0.13,0.4 0.39,0.4 h 2.86 c 0.27,0 0.4,-0.13 0.4,-0.4 V 562.1 c 0,-0.19 0.39,-0.69 1.17,-1.53 0.38,-0.42 0.83,-0.83 1.33,-1.23 0.5,-0.41 1.13,-0.76 1.88,-1.05 0.77,-0.3 1.54,-0.46 2.33,-0.46 1.7,0 3.11,0.59 4.22,1.75 1.11,1.16 1.67,2.82 1.67,4.96 v 12.4 c 0,0.27 0.13,0.4 0.4,0.4 h 2.85 c 0.27,0 0.4,-0.13 0.4,-0.4 v -12.4 c 0,-2.98 -0.87,-5.31 -2.62,-7 -1.74,-1.7 -3.99,-2.54 -6.73,-2.54 z m -322.5,0.2 c -1.16,0 -2.27,0.15 -3.33,0.47 -1.05,0.31 -1.89,0.64 -2.54,1.01 -0.64,0.36 -1.22,0.79 -1.75,1.29 -0.51,0.51 -0.84,0.85 -0.99,1.03 l -0.32,0.46 -0.37,-3.45 c -0.03,-0.28 -0.17,-0.42 -0.44,-0.42 h -2.24 c -0.27,0 -0.4,0.14 -0.4,0.42 v 20.93 c 0,0.27 0.13,0.4 0.4,0.4 h 2.86 c 0.26,0 0.39,-0.13 0.39,-0.4 v -13.63 l 0.24,-0.52 c 0.4,-0.76 1.26,-1.64 2.6,-2.61 0.66,-0.48 1.55,-0.88 2.66,-1.22 1.11,-0.34 2.33,-0.51 3.65,-0.51 h 1.21 c 0.28,0 0.42,-0.14 0.42,-0.42 v -2.44 c 0,-0.26 -0.14,-0.39 -0.42,-0.39 z m -311.17,0.39 c -0.25,0 -0.37,0.07 -0.37,0.22 -0.02,0.05 0,0.12 0.03,0.2 l 8.76,20.12 c 0.38,0.81 0.92,1.21 1.62,1.21 h 1.63 c 0.7,0 1.24,-0.4 1.63,-1.21 l 8.73,-20.12 c 0.04,-0.08 0.06,-0.15 0.06,-0.2 0,-0.14 -0.13,-0.22 -0.38,-0.22 h -2.74 c -0.26,0.01 -0.46,0.15 -0.59,0.42 l -7.52,17.26 -7.52,-17.26 c -0.15,-0.28 -0.35,-0.42 -0.62,-0.42 z m 231.7,0 c -0.25,0 -0.38,0.09 -0.38,0.26 0,0.05 0.02,0.1 0.04,0.16 l 6.75,20.12 c 0.17,0.42 0.36,0.73 0.57,0.93 0.23,0.19 0.58,0.28 1.06,0.28 h 1.42 c 0.85,0 1.39,-0.4 1.63,-1.21 l 5.08,-15.66 5.08,15.66 c 0.24,0.81 0.78,1.21 1.63,1.21 h 1.43 c 0.47,0 0.82,-0.09 1.03,-0.28 0.22,-0.2 0.42,-0.51 0.57,-0.93 l 6.75,-20.12 c 0.04,-0.06 0.06,-0.11 0.06,-0.16 0,-0.17 -0.12,-0.26 -0.38,-0.26 h -2.75 c -0.33,0 -0.54,0.14 -0.62,0.42 l -5.48,16.45 -5.08,-15.64 c -0.27,-0.82 -0.82,-1.23 -1.62,-1.23 h -1.23 c -0.81,0 -1.35,0.41 -1.63,1.23 l -5.08,15.64 -5.48,-16.45 c -0.08,-0.28 -0.28,-0.42 -0.61,-0.42 z m 125.81,0 c -0.25,0 -0.38,0.09 -0.38,0.26 0,0.05 0.01,0.1 0.04,0.16 l 6.75,20.12 c 0.17,0.42 0.36,0.73 0.57,0.93 0.23,0.19 0.58,0.28 1.06,0.28 h 1.42 c 0.85,0 1.39,-0.4 1.63,-1.21 l 5.08,-15.66 5.08,15.66 c 0.24,0.81 0.78,1.21 1.63,1.21 h 1.43 c 0.47,0 0.82,-0.09 1.03,-0.28 0.22,-0.2 0.42,-0.51 0.57,-0.93 l 6.75,-20.12 c 0.04,-0.06 0.06,-0.11 0.06,-0.16 0,-0.17 -0.12,-0.26 -0.38,-0.26 h -2.76 c -0.33,0 -0.53,0.14 -0.61,0.42 l -5.48,16.45 -5.08,-15.64 c -0.28,-0.82 -0.82,-1.23 -1.62,-1.23 h -1.23 c -0.81,0 -1.35,0.41 -1.63,1.23 l -5.08,15.64 -5.48,-16.45 c -0.08,-0.28 -0.28,-0.42 -0.61,-0.42 z m 40.22,0 c -0.26,0 -0.4,0.14 -0.4,0.42 v 20.93 c 0,0.27 0.14,0.4 0.4,0.4 h 2.84 c 0.28,0 0.42,-0.13 0.42,-0.4 v -20.93 c 0,-0.28 -0.14,-0.42 -0.42,-0.42 z m 184.23,0 c -0.26,0 -0.4,0.14 -0.4,0.42 v 20.93 c 0,0.27 0.14,0.4 0.4,0.4 h 2.84 c 0.28,0 0.42,-0.13 0.42,-0.4 v -20.93 c 0,-0.28 -0.14,-0.42 -0.42,-0.42 z m -666.63,2.24 c 1.85,0 3.45,0.66 4.78,1.97 1.34,1.3 2.07,3.01 2.19,5.14 h -13.8 c 0.23,-2.33 0.96,-4.1 2.21,-5.3 1.24,-1.2 2.78,-1.81 4.62,-1.81 z m 40.32,0 c 2.09,0 4.02,0.41 5.78,1.21 v 11.79 c 0,0.17 -0.37,0.68 -1.11,1.53 -1.61,1.82 -3.33,2.74 -5.18,2.74 -1.96,0 -3.54,-0.73 -4.73,-2.18 -1.19,-1.47 -1.78,-3.64 -1.78,-6.49 0,-2.86 0.65,-5.01 1.94,-6.43 1.31,-1.45 3.01,-2.17 5.08,-2.17 z m 28.34,0 c 1.85,0 3.45,0.66 4.78,1.97 1.34,1.3 2.06,3.01 2.18,5.14 h -13.79 c 0.23,-2.33 0.96,-4.1 2.21,-5.3 1.24,-1.2 2.78,-1.81 4.62,-1.81 z m 53.58,0 c 1.85,0 3.44,0.66 4.78,1.97 1.34,1.3 2.06,3.01 2.18,5.14 h -13.79 c 0.23,-2.33 0.96,-4.1 2.2,-5.3 1.25,-1.2 2.79,-1.81 4.63,-1.81 z m 41.71,0 c 2.06,0 3.73,0.72 5,2.17 1.28,1.42 1.92,3.57 1.92,6.43 0,2.85 -0.64,5.02 -1.92,6.49 -1.27,1.45 -2.94,2.18 -5,2.18 -2.05,0 -3.72,-0.73 -5,-2.18 -1.27,-1.47 -1.91,-3.64 -1.91,-6.49 0,-2.86 0.64,-5.01 1.91,-6.43 1.28,-1.45 2.95,-2.17 5,-2.17 z m 28.97,0 c 1.95,0 3.51,0.74 4.7,2.21 1.19,1.45 1.79,3.61 1.79,6.47 0,2.85 -0.65,5 -1.94,6.45 -1.3,1.42 -2.99,2.14 -5.08,2.14 -2.09,0 -4.02,-0.41 -5.78,-1.21 V 562.1 c 0,-0.15 0.38,-0.65 1.13,-1.53 1.56,-1.82 3.29,-2.74 5.18,-2.74 z m 65.64,0 c 2.07,0 3.74,0.72 5.01,2.17 1.28,1.42 1.92,3.57 1.92,6.43 0,2.85 -0.64,5.02 -1.92,6.49 -1.27,1.45 -2.94,2.18 -5.01,2.18 -2.05,0 -3.71,-0.73 -5,-2.18 -1.27,-1.47 -1.9,-3.64 -1.9,-6.49 0,-2.86 0.63,-5.01 1.9,-6.43 1.29,-1.45 2.95,-2.17 5,-2.17 z m 154.83,0 c 1.85,0 3.44,0.66 4.78,1.97 1.33,1.3 2.06,3.01 2.18,5.14 h -13.79 c 0.22,-2.33 0.96,-4.1 2.2,-5.3 1.24,-1.2 2.79,-1.81 4.63,-1.81 z m 154.97,0 c 1.95,0 3.52,0.74 4.71,2.21 1.19,1.45 1.78,3.61 1.78,6.47 0,2.85 -0.64,5 -1.94,6.45 -1.3,1.42 -2.99,2.14 -5.08,2.14 -2.09,0 -4.02,-0.41 -5.78,-1.21 V 562.1 c 0,-0.15 0.38,-0.65 1.13,-1.53 1.57,-1.82 3.29,-2.74 5.18,-2.74 z m 120.42,0 c 2.06,0 3.73,0.72 5,2.17 1.28,1.42 1.92,3.57 1.92,6.43 0,2.85 -0.64,5.02 -1.92,6.49 -1.27,1.45 -2.94,2.18 -5,2.18 -2.05,0 -3.72,-0.73 -5,-2.18 -1.27,-1.47 -1.91,-3.64 -1.91,-6.49 0,-2.86 0.64,-5.01 1.91,-6.43 1.28,-1.45 2.95,-2.17 5,-2.17 z m -325.56,9.15 h 6.93 v 3.85 c 0,0.03 -0.1,0.19 -0.3,0.48 -0.19,0.28 -0.49,0.63 -0.9,1.05 -0.41,0.42 -0.87,0.84 -1.4,1.25 -0.52,0.4 -1.19,0.75 -2.01,1.05 -0.81,0.29 -1.64,0.44 -2.52,0.44 -1.62,0 -2.88,-0.35 -3.77,-1.03 -0.87,-0.69 -1.31,-1.7 -1.31,-3.02 0,-2.71 1.76,-4.07 5.28,-4.07 z m 230.98,0 h 6.93 v 3.85 c 0,0.03 -0.1,0.19 -0.3,0.48 -0.19,0.28 -0.48,0.63 -0.89,1.05 -0.41,0.42 -0.88,0.84 -1.41,1.25 -0.52,0.4 -1.19,0.75 -2.01,1.05 -0.8,0.29 -1.64,0.44 -2.52,0.44 -1.62,0 -2.88,-0.35 -3.77,-1.03 -0.87,-0.69 -1.31,-1.7 -1.31,-3.02 0,-2.71 1.76,-4.07 5.28,-4.07 z" /></g></svg>