<?xml version="1.0" encoding="UTF-8" standalone="no"?>
<svg
   xmlns:dc="http://purl.org/dc/elements/1.1/"
   xmlns:cc="http://creativecommons.org/ns#"
   xmlns:rdf="http://www.w3.org/1999/02/22-rdf-syntax-ns#"
   xmlns:svg="http://www.w3.org/2000/svg"
   xmlns="http://www.w3.org/2000/svg"
   id="svg45"
   xml:space="preserve"
   enable-background="new 0 0 1024 1024"
   viewBox="0 0 1024 1024"
   y="0px"
   x="0px"
   version="1.1"><metadata
     id="metadata51"><rdf:RDF><cc:Work
         rdf:about=""><dc:format>image/svg+xml</dc:format><dc:type
           rdf:resource="http://purl.org/dc/dcmitype/StillImage" /></cc:Work></rdf:RDF></metadata><defs
     id="defs49" /><g
     id="g43"
     transform="translate(0,128)"><g
       transform="translate(0,-15.028)"
       id="logo-group"><path
         stroke-miterlimit="2"
         d="m 120.89,564.33 q -0.0396,-0.0992 -0.0396,-0.17859 0,-0.23813 0.37704,-0.23813 h 2.7583 q 0.4961,0 0.61516,0.41672 l 7.1834,23.158 6.3103,-22.344 q 0.119,-0.49609 0.57547,-0.85328 0.47625,-0.37703 1.0517,-0.37703 h 1.4089 q 0.57548,0 1.0319,0.37703 0.47625,0.35719 0.59531,0.85328 l 6.2706,22.344 7.1834,-23.158 q 0.119,-0.39687 0.61516,-0.41672 h 2.7583 q 0.4961,0 0.33735,0.41672 l -8.4138,26.829 q -0.39694,1.2105 -1.8455,1.2105 h -1.2105 q -0.73423,0 -1.2303,-0.35719 -0.47624,-0.37703 -0.59531,-0.85328 l -6.2111,-22.126 -6.1912,22.126 q -0.11906,0.49609 -0.61515,0.85328 -0.47625,0.35719 -1.2105,0.35719 h -1.2105 q -1.4288,0 -1.8455,-1.2105 z"
         style="font-variant-ligatures:none;fill:#262223;stroke-width:0;stroke-miterlimit:2"
         id="path23241" /><path
         stroke-miterlimit="2"
         d="m 175.18,593.02 q -4.4252,0 -7.3422,-2.9964 -2.8972,-3.0162 -2.8972,-8.5527 0,-5.5562 2.8972,-8.4931 2.917,-2.9567 7.6002,-2.9567 4.703,0 7.6597,3.0162 2.9766,2.9964 2.9766,7.9573 v 1.012 q 0,0.8136 -0.8136,0.8136 h -16.629 q 0.33736,3.6909 2.1828,5.5166 1.8455,1.8256 4.6831,1.8256 4.4847,0 6.5088,-3.6512 0.23813,-0.39687 0.4961,-0.39687 h 2.5598 q 0.51594,0 0.39687,0.47625 -0.81358,2.9369 -3.3338,4.6831 -2.52022,1.7462 -6.9453,1.7462 z m -6.5484,-13.057 h 13.791 q -0.1786,-3.1948 -2.1828,-5.1395 -2.0042,-1.9645 -4.7824,-1.9645 -2.7583,0 -4.6236,1.8058 -1.8653,1.8058 -2.2027,5.2983 z"
         style="font-variant-ligatures:none;fill:#262223;stroke-width:0;stroke-miterlimit:2"
         id="path23243" /><path
         stroke-miterlimit="2"
         d="m 215.07,592.98 q -4.3458,0 -7.1636,-2.9369 -2.798,-2.9567 -2.798,-8.513 0,-5.5761 2.8774,-8.5328 2.8972,-2.9766 7.4811,-2.9766 1.5478,0 3.0758,0.29765 1.528,0.29766 2.2423,0.59532 l 0.77391,0.3175 v -6.9056 q 0,-0.39687 0.41671,-0.41672 h 2.8377 q 0.39687,0 0.41671,0.41672 v 27.642 q 0,0.39688 -0.41671,0.39688 h -2.2225 q -0.39688,0 -0.45642,-0.39688 l -0.35718,-2.2423 q -0.23813,0.33734 -1.0319,1.0319 -0.7739,0.67468 -1.4883,1.0914 -1.8455,1.1311 -4.187,1.1311 z m 0.71437,-20.122 q -3.1155,0 -5.08,2.163 -1.9447,2.1431 -1.9447,6.4294 0,4.2862 1.7859,6.4889 1.7859,2.1828 4.7228,2.1828 2.7781,0 5.1792,-2.7384 1.1112,-1.27 1.1112,-1.528 v -11.787 q -2.6392,-1.2105 -5.7745,-1.2105 z"
         style="font-variant-ligatures:none;fill:#262223;stroke-width:0;stroke-miterlimit:2"
         id="path23245" /><path
         stroke-miterlimit="2"
         d="m 243.84,593.02 q -4.4252,0 -7.3422,-2.9964 -2.8972,-3.0162 -2.8972,-8.5527 0,-5.5562 2.8972,-8.4931 2.917,-2.9567 7.6002,-2.9567 4.703,0 7.6597,3.0162 2.9766,2.9964 2.9766,7.9573 v 1.012 q 0,0.8136 -0.8136,0.8136 h -16.629 q 0.33735,3.6909 2.1828,5.5166 1.8455,1.8256 4.6831,1.8256 4.4847,0 6.5088,-3.6512 0.23812,-0.39687 0.4961,-0.39687 h 2.5598 q 0.51594,0 0.39688,0.47625 -0.81359,2.9369 -3.3338,4.6831 -2.52021,1.7462 -6.9453,1.7462 z m -6.5484,-13.057 h 13.791 q -0.1786,-3.1948 -2.1828,-5.1395 -2.0042,-1.9645 -4.7824,-1.9645 -2.7583,0 -4.6236,1.8058 -1.8653,1.8058 -2.2027,5.2983 z"
         style="font-variant-ligatures:none;fill:#262223;stroke-width:0;stroke-miterlimit:2"
         id="path23247" /><path
         stroke-miterlimit="2"
         d="m 259.8,571.04 q -0.0596,-0.11906 -0.0396,-0.19844 0,-0.21828 0.37704,-0.21828 h 2.7186 q 0.39688,0 0.61517,0.41672 l 7.5208,17.264 7.5208,-17.264 q 0.19844,-0.39688 0.59531,-0.41672 h 2.7384 q 0.37702,0 0.37702,0.21828 0,0.0794 -0.0596,0.19844 l -8.7312,20.122 q -0.5755,1.2105 -1.6272,1.2105 h -1.6272 q -1.0517,0 -1.6272,-1.2105 z"
         style="font-variant-ligatures:none;fill:#262223;stroke-width:0;stroke-miterlimit:2"
         id="path23249" /><path
         stroke-miterlimit="2"
         d="m 297.42,593.02 q -4.4252,0 -7.3422,-2.9964 -2.8972,-3.0162 -2.8972,-8.5527 0,-5.5562 2.8972,-8.4931 2.917,-2.9567 7.6002,-2.9567 4.703,0 7.6597,3.0162 2.9766,2.9964 2.9766,7.9573 v 1.012 q 0,0.8136 -0.8136,0.8136 h -16.629 q 0.33735,3.6909 2.1828,5.5166 1.8455,1.8256 4.6831,1.8256 4.4847,0 6.5088,-3.6512 0.23813,-0.39687 0.4961,-0.39687 h 2.5598 q 0.51594,0 0.39687,0.47625 -0.81358,2.9369 -3.3338,4.6831 -2.5201,1.7462 -6.9453,1.7462 z m -6.5484,-13.057 h 13.791 q -0.1786,-3.1948 -2.1828,-5.1395 -2.0042,-1.9645 -4.7824,-1.9645 -2.7583,0 -4.6236,1.8058 -1.8653,1.8058 -2.2027,5.2983 z"
         style="font-variant-ligatures:none;fill:#262223;stroke-width:0;stroke-miterlimit:2"
         id="path23251" /><path
         stroke-miterlimit="2"
         d="m 316.75,591.97 v -27.642 q 0,-0.41672 0.39688,-0.41672 h 2.8575 q 0.39687,0 0.39687,0.41672 v 27.642 q 0,0.39688 -0.39687,0.39688 h -2.8575 q -0.39688,0 -0.39688,-0.39688 z"
         style="font-variant-ligatures:none;fill:#262223;stroke-width:0;stroke-miterlimit:2"
         id="path23253" /><path
         stroke-miterlimit="2"
         d="m 339.41,592.98 q -4.7426,0 -7.6597,-2.9766 -2.8972,-2.9964 -2.8972,-8.5328 0,-5.5562 2.8972,-8.4931 2.917,-2.9567 7.6597,-2.9567 4.7625,0 7.6597,2.9567 2.917,2.9369 2.917,8.4931 0,5.5364 -2.917,8.5328 -2.8972,2.9766 -7.6597,2.9766 z m 0,-20.122 q -3.0758,0 -5.0006,2.163 -1.905,2.1431 -1.905,6.4294 0,4.2862 1.905,6.4889 1.9248,2.1828 5.0006,2.1828 3.0956,0 5.0006,-2.1828 1.9248,-2.2026 1.9248,-6.4889 0,-4.2862 -1.9248,-6.4294 -1.905,-2.163 -5.0006,-2.163 z"
         style="font-variant-ligatures:none;fill:#262223;stroke-width:0;stroke-miterlimit:2"
         id="path23255" /><path
         stroke-miterlimit="2"
         d="m 358.42,598.66 v -27.62 q 0,-0.39688 0.39687,-0.41672 h 2.2424 q 0.39687,0 0.43656,0.41672 l 0.37702,2.2225 q 0.21829,-0.33735 0.99219,-1.012 0.79375,-0.69453 1.5081,-1.1112 1.8455,-1.1112 4.2069,-1.1112 4.3458,0 7.1438,2.9567 2.8178,2.9369 2.8178,8.4931 0,5.5562 -2.8972,8.5328 -2.8773,2.9766 -7.4811,2.9766 -1.5478,0 -3.0758,-0.3175 -1.5081,-0.29766 -2.282,-0.61516 l -0.73422,-0.29766 v 6.9056 q 0,0.39687 -0.39688,0.41672 h -2.8575 q -0.39687,-0.0198 -0.39687,-0.41672 z m 3.6512,-9.7433 q 2.6392,1.2105 5.7745,1.2105 3.1353,0 5.08,-2.1431 1.9447,-2.163 1.9447,-6.4492 0,-4.2862 -1.7859,-6.4691 -1.7859,-2.2027 -4.703,-2.2027 -2.8376,0 -5.1792,2.7384 -1.1311,1.3097 -1.1311,1.528 z"
         style="font-variant-ligatures:none;fill:#262223;stroke-width:0;stroke-miterlimit:2"
         id="path23257" /><path
         stroke-miterlimit="2"
         d="m 397.13,586.55 q -0.0198,-0.0992 -0.0198,-0.15875 0,-0.3175 0.43656,-0.3175 h 2.5598 q 0.23813,0 0.49609,0.39688 2.0241,3.6512 7.1041,3.6512 2.8774,0 4.2862,-0.85329 1.4089,-0.85328 1.4089,-2.1431 0,-1.28982 -0.97235,-2.1034 -0.9525,-0.83344 -3.2941,-1.3891 l -5.08,-1.2303 q -6.5088,-1.5875 -6.5088,-6.2905 0,-2.6789 2.4209,-4.3855 2.4209,-1.7066 6.6477,-1.7066 4.2267,0 6.8262,1.7462 2.5995,1.7462 3.4131,4.6633 0.119,0.49609 -0.41673,0.49609 h -2.5598 q -0.23813,0 -0.47625,-0.41672 -2.0241,-3.6512 -6.7072,-3.6512 -2.7186,0 -4.1077,0.87313 -1.3891,0.87312 -1.3891,2.163 0,1.27 0.9525,2.0836 0.97235,0.81359 3.3139,1.3891 l 5.08,1.2105 q 6.5088,1.5478 6.5088,6.3103 0,2.6789 -2.4606,4.3855 -2.4606,1.7066 -6.8858,1.7066 -4.4252,0 -7.1041,-1.7264 -2.6591,-1.7264 -3.4726,-4.703 z"
         style="font-variant-ligatures:none;fill:#262223;stroke-width:0;stroke-miterlimit:2"
         id="path23259" /><path
         stroke-miterlimit="2"
         d="m 434.02,592.98 q -4.7426,0 -7.6597,-2.9766 -2.8972,-2.9964 -2.8972,-8.5328 0,-5.5562 2.8972,-8.4931 2.917,-2.9567 7.6597,-2.9567 4.7625,0 7.6597,2.9567 2.917,2.9369 2.917,8.4931 0,5.5364 -2.917,8.5328 -2.8972,2.9766 -7.6597,2.9766 z m 0,-20.122 q -3.0758,0 -5.0006,2.163 -1.905,2.1431 -1.905,6.4294 0,4.2862 1.905,6.4889 1.9248,2.1828 5.0006,2.1828 3.0956,0 5.0006,-2.1828 1.9248,-2.2026 1.9248,-6.4889 0,-4.2862 -1.9248,-6.4294 -1.905,-2.163 -5.0006,-2.163 z"
         style="font-variant-ligatures:none;fill:#262223;stroke-width:0;stroke-miterlimit:2"
         id="path23261" /><path
         stroke-miterlimit="2"
         d="m 452.62,591.97 v -19.725 q 0,-4.068 2.4408,-6.4889 2.4408,-2.4408 6.9056,-2.4408 3.2544,0 5.2983,0.97234 0.39687,0.19844 0.39687,0.51594 v 2.0042 q 0,0.49609 -0.39687,0.3175 -2.0241,-0.97234 -4.8816,-0.97234 -6.092,0 -6.092,6.092 v 1.4288 h 8.2749 q 0.39687,0 0.41671,0.39687 v 2.0439 q 0,0.39687 -0.41671,0.39687 h -8.2749 v 15.458 q 0,0.39688 -0.41671,0.39688 h -2.8377 q -0.41671,0 -0.41671,-0.39688 z"
         style="font-variant-ligatures:none;fill:#262223;stroke-width:0;stroke-miterlimit:2"
         id="path23263" /><path
         stroke-miterlimit="2"
         d="m 473.67,584.03 v -19.705 q 0,-0.41672 0.39687,-0.41672 h 2.8575 q 0.39688,0 0.39688,0.41672 v 6.2905 h 8.2947 q 0.39687,0 0.39687,0.41672 v 2.0241 q 0,0.41672 -0.39687,0.41672 h -8.2947 v 10.557 q 0,3.0162 1.3891,4.5641 1.4089,1.528 3.8894,1.528 2.1828,0 3.9092,-0.59532 l 0.57546,-0.21828 q 0.39688,-0.15875 0.39688,0.33735 v 1.9844 q 0,0.33734 -0.39688,0.53578 -2.0439,0.8136 -4.8816,0.8136 -3.9092,0 -6.2309,-2.4606 -2.3019,-2.4606 -2.3019,-6.4889 z"
         style="font-variant-ligatures:none;fill:#262223;stroke-width:0;stroke-miterlimit:2"
         id="path23265" /><path
         stroke-miterlimit="2"
         d="m 491.49,571.04 q -0.0396,-0.0794 -0.0396,-0.15875 0,-0.25797 0.37704,-0.25797 h 2.7583 q 0.4961,0 0.61516,0.41672 l 5.4769,16.45 5.08,-15.637 q 0.41672,-1.2303 1.6272,-1.2303 h 1.2303 q 1.2105,0 1.6272,1.2303 l 5.08,15.637 5.4769,-16.45 q 0.119,-0.41672 0.61515,-0.41672 h 2.7583 q 0.37703,0 0.37703,0.25797 0,0.0794 -0.0596,0.15875 l -6.7469,20.122 q -0.23812,0.635 -0.57547,0.93266 -0.31753,0.27781 -1.0319,0.27781 h -1.4288 q -1.27,0 -1.6272,-1.2105 l -5.08,-15.657 -5.08,15.657 q -0.35719,1.2105 -1.6272,1.2105 h -1.4288 q -0.71438,0 -1.0517,-0.27781 -0.3175,-0.29766 -0.57548,-0.93266 z"
         style="font-variant-ligatures:none;fill:#262223;stroke-width:0;stroke-miterlimit:2"
         id="path23267" /><path
         stroke-miterlimit="2"
         d="m 532.03,591.14 q -2.282,-1.8653 -2.282,-5.0602 0,-3.2147 2.3416,-5.0602 2.3614,-1.8653 6.5881,-1.8653 h 6.9255 v -0.19843 q 0,-6.092 -6.1119,-6.092 -1.905,0 -3.2544,0.91282 -1.3295,0.91281 -1.8256,2.3416 -0.119,0.39687 -0.47626,0.39687 h -2.5598 q -0.4564,0 -0.41671,-0.39687 0.3175,-2.7583 2.6194,-4.4252 2.3019,-1.6669 5.9134,-1.6669 4.7228,0 7.243,2.3416 2.5202,2.3217 2.5202,6.5881 v 13.017 q 0,0.39688 -0.41673,0.39688 h -2.2225 q -0.39687,0 -0.4564,-0.39688 l -0.35718,-2.2423 q -0.23813,0.37703 -1.0517,1.0517 -0.81358,0.65484 -1.6272,1.0716 -2.1431,1.1311 -4.8419,1.1311 -3.9489,0 -6.2508,-1.8455 z m 1.3692,-5.0602 q 0,1.9844 1.3097,3.0162 1.3295,1.0319 3.7703,1.0319 1.3097,0 2.5202,-0.43657 1.2303,-0.4564 2.0042,-1.0517 0.79375,-0.61515 1.4089,-1.2502 0.61514,-0.635 0.89296,-1.0517 0.29766,-0.43656 0.29766,-0.47625 v -3.8497 h -6.9255 q -5.2784,0 -5.2784,4.068 z"
         style="font-variant-ligatures:none;fill:#262223;stroke-width:0;stroke-miterlimit:2"
         id="path23269" /><path
         stroke-miterlimit="2"
         d="m 558.92,591.97 v -20.93 q 0,-0.41672 0.39687,-0.41672 h 2.2424 q 0.39688,0 0.43657,0.41672 l 0.37702,3.4528 0.3175,-0.45641 q 0.21829,-0.27781 0.99219,-1.0319 0.79375,-0.75406 1.7462,-1.2898 0.97235,-0.55563 2.54,-1.012 1.5875,-0.47626 3.3338,-0.47626 h 1.6272 q 0.41672,0 0.41672,0.39688 v 2.4408 q 0,0.41672 -0.41672,0.41672 h -1.2105 q -1.9844,0 -3.6513,0.51594 -1.6669,0.49609 -2.6591,1.2105 -2.0042,1.4684 -2.5995,2.6194 l -0.23812,0.51594 v 13.633 q 0,0.39688 -0.39688,0.39688 h -2.8575 q -0.39687,0 -0.39687,-0.39688 z"
         style="font-variant-ligatures:none;fill:#262223;stroke-width:0;stroke-miterlimit:2"
         id="path23271" /><path
         stroke-miterlimit="2"
         d="m 588.57,593.02 q -4.4252,0 -7.3422,-2.9964 -2.8972,-3.0162 -2.8972,-8.5527 0,-5.5562 2.8972,-8.4931 2.917,-2.9567 7.6002,-2.9567 4.703,0 7.6597,3.0162 2.9766,2.9964 2.9766,7.9573 v 1.012 q 0,0.8136 -0.8136,0.8136 h -16.629 q 0.33735,3.6909 2.1828,5.5166 1.8455,1.8256 4.6831,1.8256 4.4847,0 6.5088,-3.6512 0.23813,-0.39687 0.4961,-0.39687 h 2.5598 q 0.51594,0 0.39687,0.47625 -0.81358,2.9369 -3.3338,4.6831 -2.52022,1.7462 -6.9453,1.7462 z m -6.5484,-13.057 h 13.791 q -0.1786,-3.1948 -2.1828,-5.1395 -2.0042,-1.9645 -4.7824,-1.9645 -2.7583,0 -4.6236,1.8058 -1.8653,1.8058 -2.2027,5.2983 z"
         style="font-variant-ligatures:none;fill:#262223;stroke-width:0;stroke-miterlimit:2"
         id="path23273" /><path
         stroke-miterlimit="2"
         d="m 617.3,571.04 q -0.0396,-0.0794 -0.0396,-0.15875 0,-0.25797 0.37704,-0.25797 h 2.7583 q 0.4961,0 0.61516,0.41672 l 5.4769,16.45 5.08,-15.637 q 0.41671,-1.2303 1.6272,-1.2303 h 1.2303 q 1.2105,0 1.6272,1.2303 l 5.08,15.637 5.4769,-16.45 q 0.119,-0.41672 0.61509,-0.41672 h 2.7583 q 0.37702,0 0.37702,0.25797 0,0.0794 -0.0596,0.15875 l -6.7469,20.122 q -0.23812,0.635 -0.57547,0.93266 -0.31747,0.27781 -1.0318,0.27781 h -1.4288 q -1.27,0 -1.6272,-1.2105 l -5.08,-15.657 -5.08,15.657 q -0.35719,1.2105 -1.6272,1.2105 h -1.4288 q -0.71437,0 -1.0517,-0.27781 -0.3175,-0.29766 -0.57547,-0.93266 z"
         style="font-variant-ligatures:none;fill:#262223;stroke-width:0;stroke-miterlimit:2"
         id="path23275" /><path
         stroke-miterlimit="2"
         d="m 657.17,564.73 q 0,-0.8136 0.81359,-0.8136 h 2.6392 q 0.4564,0 0.635,0.19844 0.17859,0.17859 0.17859,0.61516 v 2.6392 q 0,0.4564 -0.17859,0.63499 -0.1786,0.1786 -0.635,0.1786 h -2.6392 q -0.43656,0 -0.635,-0.1786 Q 657.17,567.8256 657.17,567.3692 Z m 0.29765,27.245 v -20.94 q 0,-0.41672 0.39688,-0.41672 h 2.8377 q 0.41671,0 0.41671,0.41672 v 20.935 q 0,0.39688 -0.41671,0.39688 h -2.8377 q -0.39688,0 -0.39688,-0.39688 z"
         style="font-variant-ligatures:none;fill:#262223;stroke-width:0;stroke-miterlimit:2"
         id="path23277" /><path
         stroke-miterlimit="2"
         d="m 671.08,584.03 v -19.705 q 0,-0.41672 0.39688,-0.41672 h 2.8575 q 0.39687,0 0.39687,0.41672 v 6.2905 h 8.2947 q 0.39688,0 0.39688,0.41672 v 2.0241 q 0,0.41672 -0.39688,0.41672 h -8.2947 v 10.557 q 0,3.0162 1.3891,4.5641 1.4089,1.528 3.8894,1.528 2.1828,0 3.9092,-0.59532 l 0.57546,-0.21828 q 0.39687,-0.15875 0.39687,0.33735 v 1.9844 q 0,0.33734 -0.39687,0.53578 -2.0439,0.8136 -4.8816,0.8136 -3.9092,0 -6.2309,-2.4606 -2.3019,-2.4606 -2.3019,-6.4889 z"
         style="font-variant-ligatures:none;fill:#262223;stroke-width:0;stroke-miterlimit:2"
         id="path23279" /><path
         stroke-miterlimit="2"
         d="m 692.11,591.97 v -27.642 q 0,-0.41672 0.39687,-0.41672 h 2.8575 q 0.39688,0 0.39688,0.41672 v 8.7312 q 0.15875,-0.23812 0.97235,-0.91281 0.81359,-0.67469 1.5676,-1.0914 1.9248,-1.0319 4.3656,-1.0319 4.1077,0 6.727,2.54 2.6194,2.54 2.6194,7.0048 v 12.402 q 0,0.39688 -0.39688,0.39688 h -2.8575 q -0.39687,0 -0.39687,-0.39688 v -12.402 q 0,-3.2147 -1.6669,-4.9609 -1.6669,-1.7462 -4.2267,-1.7462 -1.7859,0 -3.4726,0.99219 -1.6867,0.99219 -2.4606,1.8653 -0.77391,0.87313 -0.77391,1.012 v 15.24 q 0,0.39688 -0.39688,0.39688 h -2.8575 q -0.39687,0 -0.39687,-0.39688 z"
         style="font-variant-ligatures:none;fill:#262223;stroke-width:0;stroke-miterlimit:2"
         id="path23281" /><path
         stroke-miterlimit="2"
         d="m 733.86,598.66 v -27.62 q 0,-0.39688 0.39687,-0.41672 h 2.2424 q 0.39687,0 0.43656,0.41672 l 0.37702,2.2225 q 0.21829,-0.33735 0.99219,-1.012 0.79375,-0.69453 1.5081,-1.1112 1.8455,-1.1112 4.2069,-1.1112 4.3458,0 7.1438,2.9567 2.8178,2.9369 2.8178,8.4931 0,5.5562 -2.8972,8.5328 -2.8773,2.9766 -7.4811,2.9766 -1.5478,0 -3.0758,-0.3175 -1.5081,-0.29766 -2.282,-0.61516 l -0.73423,-0.29766 v 6.9056 q 0,0.39687 -0.39688,0.41672 h -2.8575 q -0.39687,-0.0198 -0.39687,-0.41672 z m 3.6512,-9.7433 q 2.6392,1.2105 5.7745,1.2105 3.1353,0 5.08,-2.1431 1.9447,-2.163 1.9447,-6.4492 0,-4.2862 -1.7859,-6.4691 -1.7859,-2.2027 -4.703,-2.2027 -2.8376,0 -5.1792,2.7384 -1.1311,1.3097 -1.1311,1.528 z"
         style="font-variant-ligatures:none;fill:#262223;stroke-width:0;stroke-miterlimit:2"
         id="path23283" /><path
         stroke-miterlimit="2"
         d="m 763.01,591.14 q -2.282,-1.8653 -2.282,-5.0602 0,-3.2147 2.3416,-5.0602 2.3614,-1.8653 6.5881,-1.8653 h 6.9255 v -0.19843 q 0,-6.092 -6.1119,-6.092 -1.905,0 -3.2544,0.91282 -1.3295,0.91281 -1.8256,2.3416 -0.119,0.39687 -0.47625,0.39687 h -2.5599 q -0.45639,0 -0.41671,-0.39687 0.3175,-2.7583 2.6194,-4.4252 2.3019,-1.6669 5.9134,-1.6669 4.7228,0 7.243,2.3416 2.5202,2.3217 2.5202,6.5881 v 13.017 q 0,0.39688 -0.41673,0.39688 h -2.2225 q -0.39687,0 -0.45639,-0.39688 l -0.35719,-2.2423 q -0.23813,0.37703 -1.0517,1.0517 -0.81358,0.65484 -1.6272,1.0716 -2.1431,1.1311 -4.8419,1.1311 -3.9489,0 -6.2508,-1.8455 z m 1.3692,-5.0602 q 0,1.9844 1.3097,3.0162 1.3295,1.0319 3.7703,1.0319 1.3097,0 2.5202,-0.43657 1.2303,-0.4564 2.0042,-1.0517 0.79375,-0.61515 1.4089,-1.2502 0.61515,-0.635 0.89297,-1.0517 0.29766,-0.43656 0.29766,-0.47625 v -3.8497 h -6.9255 q -5.2784,0 -5.2784,4.068 z"
         style="font-variant-ligatures:none;fill:#262223;stroke-width:0;stroke-miterlimit:2"
         id="path23285" /><path
         stroke-miterlimit="2"
         d="m 787.9,586.55 q -0.0198,-0.0992 -0.0198,-0.15875 0,-0.3175 0.43656,-0.3175 h 2.5598 q 0.23812,0 0.49609,0.39688 2.0241,3.6512 7.1041,3.6512 2.8774,0 4.2862,-0.85329 1.4089,-0.85328 1.4089,-2.1431 0,-1.28982 -0.97235,-2.1034 -0.9525,-0.83344 -3.2941,-1.3891 l -5.08,-1.2303 q -6.5088,-1.5875 -6.5088,-6.2905 0,-2.6789 2.4209,-4.3855 2.4209,-1.7066 6.6477,-1.7066 4.2267,0 6.8262,1.7462 2.5995,1.7462 3.4131,4.6633 0.119,0.49609 -0.41672,0.49609 h -2.5598 q -0.23812,0 -0.47625,-0.41672 -2.0241,-3.6512 -6.7072,-3.6512 -2.7186,0 -4.1077,0.87313 -1.3891,0.87312 -1.3891,2.163 0,1.27 0.9525,2.0836 0.97235,0.81359 3.3139,1.3891 l 5.08,1.2105 q 6.5088,1.5478 6.5088,6.3103 0,2.6789 -2.4606,4.3855 -2.4606,1.7066 -6.8858,1.7066 -4.4252,0 -7.1041,-1.7264 -2.6591,-1.7264 -3.4726,-4.703 z"
         style="font-variant-ligatures:none;fill:#262223;stroke-width:0;stroke-miterlimit:2"
         id="path23287" /><path
         stroke-miterlimit="2"
         d="m 813.85,586.55 q -0.0198,-0.0992 -0.0198,-0.15875 0,-0.3175 0.43656,-0.3175 h 2.5598 q 0.23813,0 0.49609,0.39688 2.0241,3.6512 7.1041,3.6512 2.8774,0 4.2862,-0.85329 1.4089,-0.85328 1.4089,-2.1431 0,-1.28982 -0.97235,-2.1034 -0.9525,-0.83344 -3.2941,-1.3891 l -5.08,-1.2303 q -6.5088,-1.5875 -6.5088,-6.2905 0,-2.6789 2.4209,-4.3855 2.4209,-1.7066 6.6477,-1.7066 4.2267,0 6.8262,1.7462 2.5995,1.7462 3.4131,4.6633 0.119,0.49609 -0.41673,0.49609 h -2.5598 q -0.23813,0 -0.47625,-0.41672 -2.0241,-3.6512 -6.7072,-3.6512 -2.7186,0 -4.1077,0.87313 -1.3891,0.87312 -1.3891,2.163 0,1.27 0.9525,2.0836 0.97235,0.81359 3.3139,1.3891 l 5.08,1.2105 q 6.5088,1.5478 6.5088,6.3103 0,2.6789 -2.4606,4.3855 -2.4606,1.7066 -6.8858,1.7066 -4.4252,0 -7.1041,-1.7264 -2.6591,-1.7264 -3.4726,-4.703 z"
         style="font-variant-ligatures:none;fill:#262223;stroke-width:0;stroke-miterlimit:2"
         id="path23289" /><path
         stroke-miterlimit="2"
         d="m 841.4,564.73 q 0,-0.8136 0.81358,-0.8136 h 2.6392 q 0.4564,0 0.635,0.19844 0.17859,0.17859 0.17859,0.61516 v 2.6392 q 0,0.4564 -0.17859,0.63499 -0.1786,0.1786 -0.635,0.1786 h -2.6392 q -0.43656,0 -0.635,-0.1786 Q 841.4,567.8256 841.4,567.3692 Z m 0.29765,27.245 v -20.94 q 0,-0.41672 0.39687,-0.41672 h 2.8377 q 0.41671,0 0.41671,0.41672 v 20.935 q 0,0.39688 -0.41671,0.39688 h -2.8377 q -0.39687,0 -0.39687,-0.39688 z"
         style="font-variant-ligatures:none;fill:#262223;stroke-width:0;stroke-miterlimit:2"
         id="path23291" /><path
         stroke-miterlimit="2"
         d="m 864.24,592.98 q -4.7426,0 -7.6597,-2.9766 -2.8972,-2.9964 -2.8972,-8.5328 0,-5.5562 2.8972,-8.4931 2.917,-2.9567 7.6597,-2.9567 4.7625,0 7.6597,2.9567 2.917,2.9369 2.917,8.4931 0,5.5364 -2.917,8.5328 -2.8972,2.9766 -7.6597,2.9766 z m 0,-20.122 q -3.0758,0 -5.0006,2.163 -1.905,2.1431 -1.905,6.4294 0,4.2862 1.905,6.4889 1.9248,2.1828 5.0006,2.1828 3.0956,0 5.0006,-2.1828 1.9248,-2.2026 1.9248,-6.4889 0,-4.2862 -1.9248,-6.4294 -1.905,-2.163 -5.0006,-2.163 z"
         style="font-variant-ligatures:none;fill:#262223;stroke-width:0;stroke-miterlimit:2"
         id="path23293" /><path
         stroke-miterlimit="2"
         d="m 883.25,591.97 v -20.93 q 0,-0.41672 0.39687,-0.41672 h 2.2424 q 0.39688,0 0.43657,0.41672 l 0.37702,2.2225 q 0.23813,-0.33735 1.0319,-1.012 0.79375,-0.69453 1.5478,-1.1112 1.9447,-1.1112 4.5244,-1.1112 4.1077,0 6.727,2.54 2.6194,2.54 2.6194,7.0048 v 12.402 q 0,0.39688 -0.39688,0.39688 h -2.8575 q -0.39687,0 -0.39687,-0.39688 v -12.402 q 0,-3.2147 -1.6669,-4.9609 -1.6669,-1.7462 -4.2267,-1.7462 -1.1708,0 -2.3217,0.45641 -1.1311,0.43656 -1.8852,1.0517 -0.75406,0.59531 -1.3295,1.2303 -1.1708,1.2502 -1.1708,1.528 v 14.843 q 0,0.39688 -0.39688,0.39688 h -2.8575 q -0.39687,0 -0.39687,-0.39688 z"
         style="font-variant-ligatures:none;fill:#262223;stroke-width:0;stroke-miterlimit:2"
         id="path23295" /><path
         stroke-miterlimit="2"
         class="c1"
         d="m 176.63,462.23 c 0,0 -43.924,-1.2959 -50.836,51.558 -2.5918,-6.1934 -4.0332,-12.961 -4.0332,-20.162 0,-29.091 23.475,-51.125 54.582,-51.125 20.018,0 36.867,9.0732 46.371,23.186 l -20.881,9.3613 c -5.9063,-7.7764 -15.266,-12.673 -25.203,-12.673 v -0.14452 z"
         style="font-variant-ligatures:normal;fill:#262223;stroke-width:0;stroke-miterlimit:2"
         id="path40" /><path
         stroke-miterlimit="2"
         class="c3"
         d="m 176.63,525.6 c 9.793,0 19.154,-4.8965 25.059,-12.674 l 20.738,9.2168 c -9.5059,14.113 -26.211,23.188 -46.084,23.188 -4.3203,0 -8.498,-0.4336 -12.387,-1.2969 -3.4551,-1.2969 -6.7676,-3.0234 -9.793,-5.4727 -8.3516,-6.9121 -11.232,-14.258 -12.24,-17.713 -3.457,-11.09 0.28906,-21.459 2.5918,-27.074 0.14454,17.426 15.697,31.539 32.26,31.539 z"
         style="font-variant-ligatures:normal;fill:#c8272e;stroke-width:0;stroke-miterlimit:2"
         id="path42" /><path
         stroke-miterlimit="2"
         class="c1"
         d="m 240.41,543.89 h 22.609 V 443.08 h -22.61 z m 64.804,-100.81 v 42.34 h -25.202 l -2.8945,18.434 h 28.096 v 40.035 h 22.609 v -100.81 z"
         style="font-variant-ligatures:normal;fill:#262223;stroke-width:0;stroke-miterlimit:2"
         id="path45" /><path
         stroke-miterlimit="2"
         class="c1"
         d="M 349.71,543.89 V 443.08 h 22.611 v 100.81 z"
         style="font-variant-ligatures:normal;fill:#262223;stroke-width:0;stroke-miterlimit:2"
         id="path48" /><path
         stroke-miterlimit="2"
         class="c1"
         d="m 457.97,524.3 v 19.73 H 394.32 V 443.22 h 22.609 v 80.937 z"
         style="font-variant-ligatures:normal;fill:#262223;stroke-width:0;stroke-miterlimit:2"
         id="path51" /><path
         stroke-miterlimit="2"
         class="c1"
         d="m 535.62,524.3 v 19.73 H 471.97 V 443.22 h 22.609 v 80.937 z"
         style="font-variant-ligatures:normal;fill:#262223;stroke-width:0;stroke-miterlimit:2"
         id="path54" /><path
         stroke-miterlimit="2"
         class="c1"
         d="M 549.77,543.89 V 443.08 h 22.611 v 100.81 z"
         style="font-variant-ligatures:normal;fill:#262223;stroke-width:0;stroke-miterlimit:2"
         id="path57" /><path
         stroke-miterlimit="2"
         class="c1"
         d="m 658.03,491.32 c 11.666,2.4482 19.154,12.241 19.154,25.058 0,16.994 -13.826,27.507 -36.146,27.507 H 594.52 v -100.81 h 44.789 c 21.312,0 34.562,9.5049 34.562,24.77 0,10.369 -6.0488,18.722 -15.842,21.603 l -4.0313,1.1523 4.0313,0.86328 v -0.14356 z m -41.188,-7.0566 h 21.025 c 7.7773,0 12.818,-4.6084 12.818,-11.809 0,-7.0566 -4.8965,-11.521 -12.818,-11.521 h -21.025 z m 36.867,28.946 c 0,-7.4883 -6.0488,-12.241 -15.842,-12.241 h -21.03 v 24.914 h 21.025 c 9.793,0 15.842,-4.8965 15.842,-12.673 z"
         style="font-variant-ligatures:normal;fill:#262223;stroke-width:0;stroke-miterlimit:2"
         id="path60" /><path
         stroke-miterlimit="2"
         class="c1"
         d="M 695.52,543.89 V 443.08 h 22.611 v 100.81 z"
         style="font-variant-ligatures:normal;fill:#262223;stroke-width:0;stroke-miterlimit:2"
         id="path63" /><path
         stroke-miterlimit="2"
         class="c1"
         d="m 812.85,442.93 v 19.01 h -80.791 v -19.01 z m -51.846,30.387 c 10.514,-8.3525 22.467,0 22.467,0 v 70.422 h -22.6 v -70.42 z"
         style="font-variant-ligatures:normal;fill:#262223;stroke-width:0;stroke-miterlimit:2"
         id="path66" /><path
         stroke-miterlimit="2"
         class="c1"
         d="m 870.42,483.83 c 14.979,4.4639 31.826,9.6484 31.826,30.818 0,18.434 -14.832,30.387 -37.73,30.387 -15.408,0 -31.395,-5.9043 -43.061,-15.697 l 8.6426,-18.145 c 9.791,8.6406 24.193,14.832 34.707,14.832 8.4961,0 13.537,-3.7441 13.537,-10.08 0,-8.3535 -9.2168,-11.09 -19.875,-14.258 -14.689,-4.3203 -31.395,-9.2168 -31.395,-29.811 0,-18.146 14.689,-29.955 37.588,-29.955 13.105,0 26.785,4.0322 36.867,10.801 l -8.498,18.578 c -10.225,-6.0488 -22.609,-10.226 -30.529,-10.226 -7.3457,0 -11.666,3.1689 -11.666,8.4971 0,8.0645 9.0742,10.801 19.441,13.97 z"
         style="font-variant-ligatures:normal;fill:#262223;stroke-width:0;stroke-miterlimit:2"
         id="path69" /><path
         style="fill:#ce3126;stroke-width:1.27499998"
         d="m 498.76,198.99 c -0.0241,0 -0.4856,0.29774 -1.0258,0.66141 -0.54018,0.36437 -1.2846,0.87975 -1.6538,1.1456 -0.36934,0.26584 -1.0059,0.73938 -1.4156,1.052 -0.40903,0.31263 -1.1427,0.88826 -1.6305,1.2796 -0.48701,0.39061 -1.2051,0.98254 -1.595,1.3157 -0.38989,0.33319 -1.0279,0.8918 -1.4178,1.2413 -0.38989,0.34949 -1.2576,1.1569 -1.9275,1.7942 -0.67063,0.6373 -1.7432,1.7233 -2.3834,2.4131 -0.64084,0.69046 -1.4802,1.6219 -1.8651,2.0707 -0.38493,0.44873 -0.94284,1.1186 -1.2392,1.4887 -0.29702,0.37004 -0.83933,1.0712 -1.2058,1.5588 -0.3665,0.48701 -0.95702,1.3164 -1.3122,1.8431 -0.35517,0.526 -0.85494,1.2945 -1.1094,1.7077 -0.2552,0.41257 -0.68692,1.1484 -0.95985,1.6354 -0.27292,0.48701 -0.68621,1.2654 -0.91874,1.7304 -0.2318,0.46504 -0.58555,1.2165 -0.78546,1.6695 -0.19991,0.45298 -0.50403,1.1867 -0.67487,1.6305 -0.17155,0.44378 -0.45582,1.2852 -0.63163,1.87 -0.17581,0.58484 -0.43315,1.5574 -0.5728,2.1621 -0.13965,0.60398 -0.3339,1.5773 -0.43171,2.1622 -0.0978,0.58484 -0.24103,1.5894 -0.31829,2.233 -0.0773,0.64297 -0.17652,1.5844 -0.21976,2.0913 -0.0433,0.50686 -0.0964,2.1494 -0.11769,3.6508 -0.0234,1.6617 -0.006,3.3949 0.0439,4.4306 0.0454,0.93574 0.13044,2.3075 0.18928,3.0483 0.0581,0.7408 0.18573,2.0962 0.28284,3.0128 0.0971,0.91661 0.28782,2.4911 0.42321,3.5005 0.13611,1.0088 0.37643,2.6512 0.53451,3.6508 0.15809,0.99883 0.49056,2.9328 0.73938,4.2974 0.24812,1.3646 0.64652,3.4537 0.88613,4.6433 0.2389,1.1888 0.6054,2.9752 0.81523,3.9698 0.20984,0.99388 0.92512,4.3179 1.5901,7.3867 0.66423,3.0682 1.4469,6.7686 1.7382,8.2232 0.29137,1.454 0.65574,3.3617 0.81028,4.2392 0.15454,0.87691 0.37855,2.2649 0.49765,3.0837 0.11979,0.81877 0.28072,2.063 0.35728,2.7647 0.0773,0.70181 0.17722,1.8658 0.22259,2.5875 0.0489,0.77057 0.0652,1.9403 0.0404,2.8356 -0.0234,0.83792 -0.0907,1.8503 -0.14958,2.2486 -0.0588,0.3984 -0.15596,0.94071 -0.21622,1.2051 -0.061,0.26442 -0.19353,0.73584 -0.29561,1.0478 -0.10207,0.31191 -0.30554,0.80601 -0.45156,1.0988 -0.14604,0.29207 -0.41825,0.73513 -0.6054,0.98396 -0.18644,0.24811 -0.54514,0.62099 -0.7961,0.8287 -0.25166,0.20699 -0.68621,0.48985 -0.96623,0.62809 -0.28001,0.13893 -0.75994,0.31616 -1.0662,0.39414 -0.30624,0.0787 -0.92653,0.17794 -1.3782,0.22118 -0.45228,0.0426 -1.1179,0.0581 -1.4809,0.0333 -0.36225,-0.0241 -0.88684,-0.0922 -1.1661,-0.151 -0.2793,-0.0588 -0.74789,-0.22259 -1.0407,-0.36366 -0.35162,-0.16872 -0.66708,-0.39131 -0.92653,-0.65361 -0.21693,-0.21834 -0.51041,-0.62028 -0.65219,-0.89321 -0.14178,-0.27293 -0.32396,-0.74789 -0.40478,-1.0548 -0.0801,-0.30765 -0.18219,-0.91376 -0.22614,-1.3469 -0.0482,-0.46929 -0.0617,-1.1902 -0.034,-1.7808 0.0255,-0.54585 0.0943,-1.4072 0.15242,-1.914 0.0581,-0.50686 0.17155,-1.3525 0.25094,-1.8786 0.0801,-0.52672 0.23961,-1.4837 0.35445,-2.1267 0.11556,-0.64369 0.55932,-2.9561 0.98609,-5.1395 0.42675,-2.1834 0.94921,-4.9432 1.1612,-6.132 0.21195,-1.1895 0.51466,-3.0234 0.67204,-4.0762 0.15809,-1.0527 0.36721,-2.552 0.46433,-3.3318 0.0978,-0.77979 0.22685,-1.8871 0.28639,-2.4613 0.0595,-0.57421 0.10846,-1.6681 0.10846,-2.4308 0,-0.76278 -0.034,-1.6972 -0.0759,-2.0757 -0.0418,-0.37854 -0.13752,-1.0499 -0.21267,-1.4915 -0.0752,-0.44094 -0.22968,-1.1746 -0.34381,-1.6305 -0.11414,-0.45511 -0.30838,-1.1463 -0.43243,-1.5362 -0.12406,-0.38989 -0.40125,-1.1555 -0.61603,-1.7014 -0.2148,-0.54585 -0.6366,-1.4873 -0.93717,-2.0912 -0.30056,-0.6047 -0.70181,-1.3696 -0.8925,-1.7014 -0.19068,-0.33177 -0.59547,-0.99601 -0.89958,-1.4774 -0.30412,-0.48134 -0.83155,-1.2632 -1.1711,-1.7368 -0.34028,-0.47425 -0.98963,-1.325 -1.4433,-1.8899 -0.45441,-0.56571 -1.1222,-1.3632 -1.4845,-1.7722 -0.36154,-0.40975 -1.0655,-1.1746 -1.5632,-1.7014 -0.49597,-0.53295 -1.4726,-1.4943 -2.1662,-2.1433 -0.69615,-0.64897 -1.5836,-1.4586 -1.9737,-1.799 -0.3899,-0.34028 -1.1073,-0.94497 -1.595,-1.3441 -0.48701,-0.3984 -1.2051,-0.97474 -1.595,-1.2796 -0.3899,-0.30554 -1.1874,-0.91022 -1.7722,-1.3433 -0.58484,-0.43314 -1.4781,-1.0775 -1.9849,-1.4313 -0.50687,-0.35445 -1.4873,-1.0152 -2.1791,-1.4688 -0.69118,-0.4537 -1.8232,-1.1697 -2.5166,-1.5915 -0.69259,-0.42108 -1.7,-1.0137 -2.238,-1.3171 -0.53876,-0.30342 -0.99174,-0.53877 -1.0066,-0.52388 -0.0156,0.0149 0.28568,0.52388 0.66849,1.13 0.38281,0.60611 1.0478,1.69 1.4781,2.4075 0.4296,0.71812 1.1087,1.8955 1.5086,2.6173 0.40053,0.72166 1.074,2.0132 1.4972,2.871 0.42251,0.85777 1.0066,2.1175 1.2973,2.8002 0.28994,0.68196 0.70607,1.7312 0.92299,2.3308 0.21763,0.59973 0.50615,1.4546 0.64155,1.9005 0.13469,0.44519 0.33886,1.1824 0.45298,1.639 0.11484,0.45583 0.27506,1.1796 0.35729,1.6085 0.0822,0.42889 0.19566,1.1144 0.25165,1.5241 0.0567,0.40903 0.13682,1.2548 0.17865,1.8786 0.0418,0.62384 0.0567,1.549 0.0333,2.0558 -0.0241,0.50687 -0.0914,1.3519 -0.14958,1.8786 -0.0588,0.52672 -0.20204,1.4348 -0.31901,2.0182 -0.11625,0.58342 -0.32113,1.4511 -0.45511,1.9268 -0.13469,0.47638 -0.35728,1.2037 -0.49551,1.6163 -0.13753,0.41258 -0.39486,1.1236 -0.57138,1.5801 -0.17651,0.45653 -0.58059,1.4214 -0.89818,2.1437 -0.31759,0.72166 -1.1243,2.3975 -1.7928,3.7231 -0.6685,1.3256 -2.0473,4.0528 -3.0646,6.0611 -1.0166,2.0076 -2.1671,4.3364 -2.5556,5.175 -0.38848,0.83792 -0.96907,2.1303 -1.2895,2.871 -0.32042,0.7408 -0.87904,2.0962 -1.242,3.0128 -0.36295,0.9159 -0.86627,2.2402 -1.1186,2.9419 -0.25237,0.70181 -0.70109,2.0148 -0.99671,2.9178 -0.29633,0.90242 -0.76066,2.418 -1.0322,3.3673 -0.27221,0.94921 -0.63659,2.2834 -0.81027,2.966 -0.1744,0.68196 -0.4303,1.7346 -0.56995,2.3394 -0.13965,0.60398 -0.3984,1.7842 -0.57634,2.6229 -0.17723,0.83792 -0.41542,2.0664 -0.52885,2.7293 -0.11413,0.66282 -0.27505,1.7949 -0.35799,2.5166 -0.0829,0.72095 -0.17227,1.9601 -0.19849,2.7527 -0.0262,0.79255 -0.0255,2.0367 0.002,2.7647 0.0269,0.72804 0.11414,1.8226 0.19354,2.433 0.0794,0.61037 0.22472,1.4909 0.32326,1.9566 0.0978,0.46574 0.2871,1.242 0.41967,1.7262 0.13256,0.48347 0.39344,1.293 0.57988,1.7992 0.18644,0.50615 0.61746,1.4788 0.95773,2.1622 0.34027,0.68337 0.90243,1.6723 1.2498,2.199 0.34736,0.526 0.89747,1.2916 1.2214,1.7014 0.32468,0.40975 1.1038,1.2583 1.7318,1.8864 0.62809,0.62808 1.5475,1.4638 2.0437,1.8567 0.49623,0.39344 1.3575,1.0166 1.914,1.3859 0.55649,0.36863 1.3625,0.87053 1.79,1.1151 0.42747,0.24386 1.3845,0.73939 2.1267,1.0995 0.74222,0.36012 1.8758,0.86203 2.5188,1.1144 0.64369,0.25308 1.6482,0.62029 2.233,0.81665 0.58484,0.19708 1.5815,0.50402 2.2153,0.68338 0.63375,0.17864 1.617,0.43739 2.1841,0.57421 l 1.0322,0.24811 0.61603,-0.48064 c 0.33886,-0.26441 0.98324,-0.7812 1.4313,-1.1484 0.44874,-0.36792 1.2675,-1.0612 1.8198,-1.5419 0.55223,-0.47992 1.5086,-1.3278 2.1253,-1.8842 0.61674,-0.55578 1.7474,-1.6078 2.5124,-2.3372 0.76489,-0.73017 1.9778,-1.9423 2.6946,-2.6946 0.71741,-0.75215 1.8127,-1.9254 2.4336,-2.6074 0.621,-0.68267 1.6496,-1.8495 2.2862,-2.5931 0.63659,-0.74435 1.6219,-1.9246 2.1904,-2.6229 0.56783,-0.69897 1.6156,-2.0204 2.328,-2.9363 0.71244,-0.91661 2.06,-2.703 2.9943,-3.9698 0.93503,-1.2675 2.2579,-3.0859 2.9405,-4.0407 0.68337,-0.9556 1.8637,-2.6301 2.6237,-3.7217 0.75994,-1.0917 2.004,-2.8945 2.7647,-4.0053 0.76066,-1.1116 2.686,-3.9344 4.2789,-6.2738 1.5929,-2.3394 3.5821,-5.2423 4.42,-6.451 0.83863,-1.2087 2.2762,-3.2504 3.1942,-4.537 0.91874,-1.2866 2.7094,-3.7273 3.9798,-5.4231 1.2703,-1.6964 2.7669,-3.6423 3.3254,-4.3243 0.55862,-0.68267 1.3852,-1.6715 1.8368,-2.1976 0.45228,-0.52671 1.2498,-1.4355 1.773,-2.0204 0.52317,-0.58485 1.1413,-1.2597 1.3738,-1.4993 l 0.42321,-0.43526 -0.42959,-1.3015 c -0.23607,-0.71527 -0.5572,-1.7155 -0.71316,-2.2224 -0.15596,-0.50686 -0.44306,-1.4802 -0.63871,-2.1621 -0.19495,-0.68268 -0.51467,-1.8467 -0.71103,-2.5875 -0.19566,-0.7408 -0.49764,-1.953 -0.67204,-2.6938 -0.17368,-0.7408 -0.42817,-1.8736 -0.5657,-2.5166 -0.13752,-0.64297 -0.36083,-1.7758 -0.49693,-2.5166 -0.13541,-0.7408 -0.35943,-2.0807 -0.49695,-2.9774 -0.13752,-0.89676 -0.32964,-2.3322 -0.42747,-3.19 -0.0971,-0.85777 -0.22543,-2.182 -0.28497,-2.9419 -0.0595,-0.76066 -0.14461,-2.2118 -0.18857,-3.2255 -0.0468,-1.0712 -0.0609,-2.6449 -0.0341,-3.7572 0.0255,-1.0527 0.078,-2.3925 0.11692,-2.9774 0.039,-0.58484 0.11909,-1.5582 0.17864,-2.1621 0.0589,-0.6047 0.18644,-1.6482 0.28215,-2.3202 0.0958,-0.67132 0.25449,-1.6603 0.35373,-2.1976 0.0986,-0.53663 0.29278,-1.4865 0.43243,-2.1104 0.13965,-0.62383 0.37926,-1.5809 0.53309,-2.1267 0.15383,-0.54585 0.3899,-1.3433 0.5253,-1.7722 0.13539,-0.42888 0.40832,-1.2257 0.60681,-1.7708 0.19849,-0.54443 0.56855,-1.4696 0.82233,-2.0558 0.25308,-0.58555 0.67771,-1.4979 0.94283,-2.0267 0.26442,-0.52884 0.66282,-1.2788 0.88543,-1.6659 0.22188,-0.38707 0.69826,-1.1506 1.0584,-1.6964 0.36011,-0.54585 0.87903,-1.2796 1.1527,-1.6305 0.27434,-0.3509 0.7089,-0.87549 0.96623,-1.1661 0.25662,-0.28993 0.45724,-0.53805 0.44448,-0.55011 -0.0115,-0.0128 -0.33814,0.10846 -0.72449,0.26867 -0.38564,0.16021 -1.2122,0.54231 -1.836,0.84926 -0.62383,0.30766 -1.6446,0.84927 -2.2685,1.2051 -0.62383,0.35587 -1.6765,1.0066 -2.3394,1.4461 -0.66282,0.43952 -1.556,1.0626 -1.9849,1.3852 -0.42889,0.32255 -1.1307,0.87975 -1.5596,1.2384 -0.42889,0.35871 -1.1307,0.97616 -1.5596,1.3718 -0.42889,0.39627 -1.1576,1.1272 -1.6199,1.6249 -0.4615,0.49764 -1.1335,1.2711 -1.4929,1.7198 -0.36012,0.44803 -0.87975,1.1342 -1.1555,1.5241 -0.27506,0.38989 -0.70962,1.0478 -0.96482,1.4624 -0.25521,0.41471 -0.65573,1.1165 -0.88967,1.5596 -0.23465,0.44307 -0.59902,1.2044 -0.81098,1.6922 -0.21125,0.48701 -0.49694,1.2207 -0.63518,1.6305 -0.13752,0.40904 -0.34807,1.0804 -0.46787,1.4915 -0.1198,0.41116 -0.31263,1.1605 -0.42889,1.6659 -0.11696,0.50545 -0.29136,1.3491 -0.38776,1.8758 -0.0971,0.52672 -0.25734,1.5468 -0.35587,2.2685 -0.0992,0.72167 -0.22756,1.79 -0.28639,2.3748 -0.0588,0.58484 -0.15454,1.7169 -0.21267,2.5166 -0.0581,0.79893 -0.17085,2.7611 -0.25166,4.3597 -0.0801,1.5986 -0.19282,3.4127 -0.25094,4.0308 -0.0574,0.61816 -0.15029,1.3427 -0.2063,1.6106 -0.056,0.26726 -0.16376,0.62809 -0.24102,0.80177 -0.0766,0.17297 -0.22189,0.36863 -0.32255,0.43526 -0.12335,0.0808 -0.2467,0.10421 -0.37855,0.0716 -0.10775,-0.0269 -0.37217,-0.22968 -0.58767,-0.45087 -0.21548,-0.22567 -0.5763,-0.68722 -0.80198,-1.0302 -0.22567,-0.3417 -0.66172,-1.0825 -0.97155,-1.646 -0.30727,-0.56228 -0.78412,-1.4675 -1.057,-2.012 -0.27158,-0.54443 -0.6426,-1.3184 -0.82365,-1.7212 -0.18233,-0.40163 -0.48578,-1.1194 -0.67575,-1.5938 -0.1887,-0.4743 -0.50618,-1.3362 -0.7038,-1.9138 -0.19635,-0.57885 -0.48578,-1.4918 -0.64005,-2.0298 -0.15683,-0.5355 -0.39143,-1.4293 -0.52403,-1.9839 -0.1326,-0.55462 -0.33787,-1.5058 -0.45645,-2.1127 -0.1191,-0.60753 -0.3112,-1.7722 -0.42817,-2.5875 -0.11625,-0.81595 -0.26016,-2.0104 -0.32042,-2.6534 -0.0603,-0.64297 -0.14107,-1.6964 -0.18006,-2.3394 -0.039,-0.64368 -0.0709,-2.2749 -0.0716,-3.6253 0,-1.3505 0.0326,-3.0256 0.073,-3.7217 0.0404,-0.69614 0.13752,-1.968 0.2155,-2.8257 0.0787,-0.85776 0.22259,-2.15 0.31972,-2.871 0.0971,-0.72166 0.27151,-1.8764 0.38777,-2.5676 0.11555,-0.69117 0.33955,-1.8871 0.49694,-2.6584 0.15737,-0.77129 0.43243,-1.9921 0.61037,-2.7137 0.17794,-0.72095 0.46504,-1.8055 0.63729,-2.4103 0.17227,-0.60398 0.56571,-1.8537 0.87408,-2.7768 0.30837,-0.92299 0.78759,-2.2394 1.0641,-2.9256 0.27719,-0.68622 0.72591,-1.729 0.99672,-2.3174 0.2708,-0.58839 0.72025,-1.4887 0.99884,-2.0012 0.27788,-0.51254 0.74008,-1.3029 1.0272,-1.7559 0.2871,-0.45369 0.7486,-1.1236 1.0258,-1.4887 0.27719,-0.3658 0.60257,-0.76774 0.72237,-0.89463 0.12051,-0.12689 0.1992,-0.23039 0.17509,-0.23039 z m -52.684,0.2304 c -0.009,-0.01 -0.21196,0.32538 -0.44944,0.74434 -0.2382,0.41897 -0.73158,1.3519 -1.0974,2.0735 -0.3665,0.72095 -0.8521,1.7262 -1.079,2.233 -0.22756,0.50686 -0.57208,1.3043 -0.76702,1.7722 -0.19424,0.46787 -0.55294,1.3965 -0.7968,2.063 -0.24386,0.66708 -0.5891,1.6878 -0.76633,2.2685 -0.17794,0.5813 -0.43526,1.5028 -0.57208,2.0487 -0.13682,0.54585 -0.31404,1.327 -0.39415,1.7368 -0.0794,0.40904 -0.19212,1.0619 -0.24953,1.4497 -0.0581,0.38777 -0.14178,1.1215 -0.18715,1.6305 -0.0496,0.56712 -0.0652,1.4865 -0.0383,2.3784 0.0269,0.93148 0.0914,1.7332 0.17864,2.233 0.0752,0.42888 0.20275,1.035 0.28356,1.3469 0.0801,0.31192 0.20771,0.74434 0.28214,0.96127 0.0752,0.21693 0.24032,0.63164 0.3665,0.92157 0.12689,0.28994 0.37714,0.78262 0.55649,1.0945 0.17935,0.31192 0.60044,0.93362 0.93575,1.3824 0.3346,0.44803 0.87266,1.1342 1.1952,1.5241 0.32255,0.38989 1.0215,1.1846 1.554,1.7659 0.53309,0.5813 1.4965,1.5546 2.1416,2.1622 0.64509,0.60824 1.6022,1.4738 2.1267,1.9232 0.52458,0.45015 1.2725,1.0733 1.6623,1.3852 0.3899,0.3112 0.98041,0.77412 1.3115,1.0286 0.33176,0.25449 1.0173,0.76278 1.5241,1.1286 0.50686,0.36579 1.5277,1.0683 2.2685,1.561 0.7408,0.49268 1.8041,1.1739 2.3635,1.5136 0.55931,0.34027 1.3838,0.82587 1.8318,1.0804 0.44874,0.2552 0.82658,0.45228 0.84005,0.4381 0.0135,-0.0135 -0.47001,-0.77341 -1.0747,-1.6886 -0.60469,-0.91589 -1.5872,-2.4465 -2.1834,-3.4013 -0.59547,-0.9556 -1.4249,-2.3202 -1.8417,-3.0334 -0.41947,-0.71017 -1.1105,-1.9227 -1.5389,-2.6915 -0.42713,-0.76755 -1.2839,-2.4021 -1.9023,-3.6299 -0.61816,-1.2285 -1.3469,-2.7279 -1.6199,-3.3318 -0.27292,-0.60469 -0.71103,-1.6085 -0.97332,-2.2316 -0.26158,-0.62242 -0.66637,-1.6277 -0.89889,-2.233 -0.23252,-0.60469 -0.64227,-1.7545 -0.91093,-2.5534 -0.26797,-0.79964 -0.66141,-2.0771 -0.87408,-2.8398 -0.21196,-0.76278 -0.51467,-1.975 -0.67204,-2.6938 -0.15737,-0.71882 -0.3665,-1.8021 -0.46504,-2.406 -0.0993,-0.60469 -0.22827,-1.5297 -0.28711,-2.0558 -0.0588,-0.52671 -0.14036,-1.634 -0.18148,-2.4613 -0.0503,-1.0343 -0.051,-1.9204 -0.001,-2.8356 0.0404,-0.73229 0.12051,-1.7141 0.17864,-2.182 0.0574,-0.46788 0.1354,-1.0102 0.17155,-1.2051 0.0362,-0.19495 0.0581,-0.36226 0.0482,-0.37218 z m 157.25,13.948 c -0.0326,0 -0.0404,0.0872 -0.0177,0.19423 0.0227,0.10705 0.151,0.84855 0.28498,1.6482 0.13469,0.79893 0.35729,2.2189 0.49481,3.1546 0.13824,0.93575 0.34595,2.467 0.4615,3.4027 0.11552,0.93575 0.27506,2.4188 0.35374,3.2964 0.0794,0.87691 0.18361,2.1848 0.23252,2.9065 0.0482,0.72095 0.0886,2.6194 0.0894,4.218 7e-4,1.7482 -0.0354,3.3587 -0.0908,4.0407 -0.0504,0.62383 -0.13824,1.549 -0.19637,2.0558 -0.0574,0.50686 -0.1673,1.3363 -0.24387,1.8431 -0.0765,0.50686 -0.23463,1.4001 -0.3516,1.9849 -0.11628,0.58484 -0.33744,1.5574 -0.49057,2.1621 -0.15383,0.60398 -0.44518,1.6092 -0.64793,2.233 -0.20204,0.62383 -0.50403,1.5014 -0.67062,1.9495 -0.1666,0.44803 -0.49765,1.2696 -0.73513,1.8247 -0.23818,0.55577 -0.71882,1.5815 -1.0683,2.2798 -0.34949,0.69827 -0.93504,1.7914 -1.3009,2.4288 -0.3658,0.6373 -0.94567,1.6 -1.2888,2.1394 -0.34241,0.54018 -1.0066,1.5291 -1.4752,2.1976 -0.4693,0.6692 -1.0931,1.5355 -1.3866,1.9254 -0.29348,0.38989 -1.0187,1.3164 -1.612,2.0594 -0.59336,0.74293 -1.1222,1.3845 -1.1747,1.427 -0.0709,0.0574 -0.25804,0.0135 -0.733,-0.17155 -0.3509,-0.13682 -1.0003,-0.35587 -1.4441,-0.48701 -0.44307,-0.13115 -1.2087,-0.31618 -1.7014,-0.41188 -0.49199,-0.095 -1.23,-0.2148 -1.6396,-0.26584 -0.44378,-0.0553 -1.4738,-0.0922 -2.552,-0.0907 -1.2802,0.002 -2.1076,0.039 -2.8356,0.12832 -0.56499,0.0688 -1.4582,0.20345 -1.9849,0.29986 -0.52601,0.0957 -1.4831,0.30483 -2.1267,0.46362 -0.64297,0.15879 -1.8232,0.50473 -2.6229,0.76916 -0.79893,0.26442 -1.9473,0.68054 -2.552,0.92511 -0.60398,0.24457 -1.605,0.67771 -2.2239,0.96269 -0.61887,0.28497 -1.6078,0.77837 -2.1976,1.0967 -0.5898,0.31901 -1.4164,0.78688 -1.8368,1.0414 -0.41967,0.25379 -0.75072,0.47497 -0.73442,0.49056 0.0156,0.0163 0.45511,0.0893 0.97616,0.16233 0.52174,0.0737 1.3469,0.20133 1.834,0.28428 0.48772,0.0829 1.3441,0.24385 1.9034,0.35871 0.55932,0.11483 1.5958,0.35445 2.3039,0.5338 0.70748,0.17864 2.0367,0.57349 2.9525,0.87832 0.91661,0.30411 2.2402,0.79823 2.9419,1.0974 0.70181,0.29987 1.7609,0.7968 2.3529,1.1045 0.59264,0.30766 1.5014,0.81949 2.0204,1.1371 0.51893,0.31759 1.237,0.78192 1.595,1.0314 0.3587,0.24953 0.99388,0.72449 1.4114,1.0556 0.41754,0.33105 1.1484,0.95418 1.6241,1.3852 0.47637,0.43101 1.2186,1.1725 1.651,1.6482 0.43172,0.47568 1.0222,1.1569 1.3115,1.5142 0.28852,0.35728 0.7812,1.0109 1.0945,1.4532 0.31263,0.44235 0.77483,1.1385 1.0272,1.5482 0.25236,0.40903 0.68479,1.1605 0.96126,1.6695 0.27647,0.50828 0.68409,1.322 0.90456,1.8077 0.22047,0.48559 0.60185,1.3929 0.84642,2.0168 0.24529,0.62383 0.58982,1.5809 0.76704,2.1267 0.17723,0.54585 0.45157,1.4682 0.61036,2.0502 0.1595,0.5813 0.30058,1.0683 0.31404,1.0818 0.0135,0.0142 0.46859,-0.4303 1.0102,-0.98679 0.5423,-0.5572 1.242,-1.3314 1.5546,-1.7212 0.31333,-0.39061 0.76207,-0.98041 0.99601,-1.3107 0.23464,-0.33105 0.62524,-0.91944 0.8684,-1.3073 0.24244,-0.38776 0.64439,-1.1059 0.8918,-1.595 0.24811,-0.48914 0.59618,-1.2569 0.77412,-1.7049 0.17792,-0.44874 0.41895,-1.1506 0.53663,-1.5596 0.11692,-0.40975 0.27576,-1.0634 0.35303,-1.4532 0.0773,-0.38989 0.1751,-1.0577 0.21622,-1.4831 0.0418,-0.42605 0.0759,-1.0371 0.0759,-1.3575 0,-0.32042 -0.0333,-0.91306 -0.0737,-1.3164 -0.0411,-0.40407 -0.15172,-1.1172 -0.246,-1.5851 -0.095,-0.46787 -0.28922,-1.2016 -0.43172,-1.6297 -0.14249,-0.42888 -0.38493,-1.0669 -0.53947,-1.4178 -0.15383,-0.35162 -0.41045,-0.87832 -0.57067,-1.1704 -0.1595,-0.29278 -0.44872,-0.78688 -0.64155,-1.0988 -0.19352,-0.31192 -0.66424,-0.98183 -1.0463,-1.4887 -0.38211,-0.50687 -0.98324,-1.2406 -1.3356,-1.6305 -0.35232,-0.3899 -0.64155,-0.72876 -0.64296,-0.75357 -7.1e-4,-0.0241 0.45299,-0.41116 1.0088,-0.85918 0.55577,-0.44874 1.5206,-1.2526 2.1444,-1.7872 0.62384,-0.5338 1.7722,-1.5695 2.552,-2.3004 0.77979,-0.73159 1.8495,-1.79 2.377,-2.3521 0.52741,-0.56145 1.2009,-1.2923 1.4958,-1.6241 0.29489,-0.33177 0.84996,-0.98537 1.2335,-1.4532 0.38351,-0.46788 0.95772,-1.2016 1.276,-1.6305 0.31759,-0.42889 0.86628,-1.2115 1.2186,-1.7396 0.35162,-0.52742 0.90172,-1.4043 1.2214,-1.9495 0.31972,-0.54444 0.86273,-1.5638 1.2066,-2.2657 0.34382,-0.70182 0.81665,-1.7545 1.0513,-2.3394 0.23394,-0.58485 0.58556,-1.549 0.78192,-2.143 0.19636,-0.59407 0.4856,-1.5829 0.64297,-2.1976 0.15667,-0.61462 0.38068,-1.5964 0.49623,-2.1813 0.11552,-0.58485 0.27647,-1.5341 0.35728,-2.1098 0.0801,-0.57492 0.19495,-1.5546 0.2545,-2.1757 0.0589,-0.6217 0.13682,-1.9694 0.17227,-2.9951 0.039,-1.1392 0.0383,-2.664 -0.003,-3.9202 -0.0369,-1.1307 -0.11628,-2.6938 -0.17581,-3.4736 -0.0603,-0.77979 -0.17227,-2.0082 -0.24883,-2.7293 -0.0765,-0.72166 -0.22046,-1.9495 -0.31901,-2.7293 -0.0986,-0.77979 -0.27434,-2.0614 -0.38989,-2.8484 -0.11552,-0.78688 -0.3353,-2.1855 -0.48771,-3.1086 -0.15313,-0.92228 -0.29137,-1.6914 -0.30837,-1.7085 -0.0171,-0.017 -2.8668,-0.22047 -6.3319,-0.45298 -3.4658,-0.23252 -6.3276,-0.42251 -6.3602,-0.42321 z m -49.394,58.565 c -0.33176,0.006 -1.0492,0.0369 -1.595,0.0695 -0.54585,0.0319 -1.471,0.12547 -2.0558,0.20629 -0.58484,0.0815 -1.4461,0.22685 -1.914,0.32468 -0.46787,0.0971 -1.2087,0.27221 -1.6468,0.38848 -0.4381,0.11626 -1.1399,0.32397 -1.5596,0.4622 -0.41967,0.13752 -1.2576,0.44519 -1.8623,0.68267 -0.60399,0.2382 -1.7205,0.74435 -2.4812,1.1257 -0.75993,0.38139 -1.7651,0.92157 -2.233,1.2002 -0.46787,0.2793 -1.2973,0.8046 -1.8431,1.1668 -0.54585,0.36226 -1.4072,0.96907 -1.914,1.3483 -0.50686,0.37997 -1.3342,1.0286 -1.8382,1.4427 -0.50402,0.41329 -1.3639,1.1506 -1.9112,1.6382 -0.54728,0.48701 -1.6681,1.556 -2.4911,2.3748 -0.82302,0.81878 -1.9218,1.9509 -2.4415,2.5166 -0.52034,0.56499 -1.5072,1.6815 -2.194,2.4812 -0.68693,0.79892 -1.6496,1.9473 -2.1402,2.552 -0.48984,0.60398 -1.2413,1.5454 -1.6695,2.0912 -0.42817,0.54586 -1.3533,1.7581 -2.0558,2.6938 -0.70251,0.93575 -1.819,2.4507 -2.4804,3.3673 -0.66211,0.91589 -1.7623,2.4634 -2.4443,3.4382 -0.68268,0.97474 -1.7354,2.4897 -2.3401,3.3673 -0.60469,0.8769 -1.8921,2.7591 -2.8611,4.1825 -0.96836,1.4228 -2.511,3.6877 -3.4268,5.0332 -0.91661,1.3447 -2.5272,3.6898 -3.5807,5.2104 -1.0527,1.5206 -2.552,3.658 -3.3318,4.7496 -0.77979,1.0917 -2.0068,2.7824 -2.7265,3.7572 -0.71953,0.97474 -1.8204,2.4421 -2.4457,3.2609 -0.62525,0.81878 -1.695,2.1904 -2.377,3.0483 -0.68196,0.85777 -1.8517,2.2933 -2.5996,3.19 -0.74789,0.89676 -1.8354,2.1721 -2.4159,2.8334 -0.5813,0.66212 -1.5972,1.795 -2.2579,2.5166 -0.66069,0.72238 -2.2075,2.321 -3.4382,3.5516 -1.2307,1.2314 -2.764,2.7144 -3.4069,3.2964 -0.64368,0.58202 -1.649,1.4752 -2.233,1.9842 -0.58484,0.50898 -1.4461,1.2455 -1.914,1.6368 -0.46787,0.39132 -1.3604,1.1194 -1.9842,1.617 -0.62312,0.49835 -1.7559,1.3752 -2.5166,1.9487 -0.76065,0.57349 -1.9409,1.4405 -2.6237,1.9275 -0.68196,0.48703 -1.7346,1.2222 -2.3394,1.634 -0.60469,0.41117 -1.7212,1.1456 -2.4812,1.6319 -0.75994,0.48559 -1.9212,1.2094 -2.5789,1.6085 -0.65857,0.39911 -1.8545,1.1023 -2.6584,1.5632 -0.80389,0.4615 -2.1317,1.1973 -2.9505,1.6368 -0.81877,0.43882 -2.3656,1.2328 -3.4382,1.7645 -1.0718,0.53168 -2.6988,1.3051 -3.6154,1.7197 -0.9159,0.41471 -2.1281,0.95136 -2.6938,1.1931 -0.56499,0.24174 -1.7297,0.71953 -2.5875,1.0626 -0.85776,0.34239 -2.1175,0.83012 -2.8002,1.0839 -0.68196,0.25379 -1.8559,0.67417 -2.608,0.93503 -0.75215,0.26018 -2.0118,0.68055 -2.8002,0.93292 -0.78759,0.25307 -2.3579,0.72591 -3.4885,1.0506 -1.1307,0.32468 -2.8214,0.78263 -3.7572,1.0187 -0.93574,0.23537 -2.4989,0.6047 -3.4736,0.82021 -0.97473,0.2155 -2.3784,0.50544 -3.1192,0.6451 -0.7408,0.14035 -2.1182,0.38068 -3.0618,0.53522 -0.94284,0.15524 -2.4578,0.37429 -3.3673,0.48843 -0.9088,0.11347 -2.2103,0.2552 -2.893,0.31404 -0.68196,0.0595 -1.5546,0.1283 -1.9389,0.15383 l -0.69827,0.046 0.23748,0.24598 c 0.13043,0.13541 0.54018,0.47851 0.91094,0.76279 0.37076,0.28426 1.0088,0.73938 1.4178,1.0116 0.40975,0.27151 1.0952,0.7011 1.5241,0.95489 0.42889,0.25307 1.2746,0.71883 1.8786,1.0343 0.60469,0.31475 1.5688,0.78334 2.1437,1.0392 0.57421,0.25662 1.5156,0.65432 2.0912,0.884 0.57563,0.23039 1.5936,0.61178 2.2621,0.84785 0.66849,0.23606 1.7531,0.59264 2.4103,0.79184 0.65714,0.1992 1.7708,0.51608 2.4748,0.70465 0.70394,0.18856 1.7836,0.46007 2.3989,0.60256 0.61533,0.1432 1.746,0.38706 2.5124,0.5416 0.76633,0.15524 2.1437,0.4062 3.0596,0.5572 0.91661,0.1517 2.4316,0.37287 3.3673,0.49197 0.93575,0.11909 2.3238,0.2793 3.0837,0.35658 0.76065,0.0773 2.0522,0.18927 2.871,0.24953 0.81878,0.0595 2.0721,0.14178 2.7846,0.18219 0.71316,0.0396 2.6271,0.10276 4.2534,0.13894 1.8609,0.0418 4.0748,0.0418 5.9697,-10e-4 1.6567,-0.0369 3.6664,-0.1 4.4661,-0.13966 0.79964,-0.0397 1.9807,-0.10417 2.6237,-0.1439 0.64368,-0.0396 1.9828,-0.13541 2.9774,-0.21267 0.99459,-0.078 2.4776,-0.20558 3.2964,-0.28427 0.81878,-0.0787 2.2047,-0.22259 3.0802,-0.32042 0.87477,-0.0972 2.2358,-0.28711 3.0249,-0.4211 0.7883,-0.13398 1.9544,-0.35869 2.5911,-0.49906 0.63659,-0.14036 1.8439,-0.42605 2.6817,-0.63446 0.83863,-0.20913 2.0026,-0.51113 2.5875,-0.67204 0.58484,-0.16092 1.5582,-0.43668 2.1622,-0.61249 0.60469,-0.17652 1.96,-0.58839 3.0128,-0.91519 1.0527,-0.3268 2.8073,-0.89605 3.899,-1.2647 1.0917,-0.36862 2.7187,-0.9315 3.6154,-1.2498 0.89676,-0.319 2.5556,-0.92511 3.6863,-1.3469 1.1307,-0.4218 2.9491,-1.1158 4.0407,-1.5426 1.0917,-0.42676 2.8462,-1.1293 3.899,-1.561 1.0527,-0.43102 2.552,-1.0534 3.3318,-1.3831 0.77979,-0.32964 2.1516,-0.91946 3.0483,-1.3115 0.89676,-0.39132 2.109,-0.92511 2.6938,-1.186 0.58484,-0.26088 1.4142,-0.63377 1.8431,-0.82942 0.42889,-0.19636 1.4497,-0.66778 2.2685,-1.0485 0.81878,-0.38067 2.2231,-1.0428 3.1206,-1.4716 0.89818,-0.42889 3.0674,-1.4965 4.8205,-2.3734 1.7539,-0.87691 4.0499,-2.0487 5.1027,-2.6044 1.0527,-0.55648 2.3288,-1.2349 2.8356,-1.5086 0.50686,-0.27364 1.6709,-0.91306 2.5875,-1.4206 0.91661,-0.50828 2.5116,-1.4079 3.5445,-1.9998 1.0329,-0.59193 2.7243,-1.5809 3.7572,-2.1984 1.0329,-0.61675 2.8037,-1.7 3.9344,-2.4075 1.1307,-0.70748 2.7576,-1.7446 3.6154,-2.3047 0.85777,-0.56003 2.1018,-1.3859 2.7647,-1.8354 0.66282,-0.44874 1.9389,-1.3306 2.8356,-1.9587 0.89676,-0.62809 2.2579,-1.6022 3.0242,-2.165 0.76632,-0.56286 1.9148,-1.4228 2.552,-1.9098 0.63659,-0.48772 1.8913,-1.4731 2.7888,-2.1904 0.89676,-0.7167 2.2203,-1.8049 2.9419,-2.4166 0.72166,-0.61179 1.773,-1.5241 2.338,-2.0275 0.56428,-0.50332 1.4895,-1.3441 2.0558,-1.8672 0.56571,-0.52387 1.795,-1.7212 2.7307,-2.6598 0.93575,-0.9393 2.1806,-2.233 2.7669,-2.876 0.58554,-0.64227 1.4588,-1.6277 1.9395,-2.189 0.48135,-0.56144 1.2328,-1.471 1.6701,-2.0204 0.4381,-0.55011 1.1158,-1.4306 1.5064,-1.9566 0.39131,-0.52671 1.079,-1.4993 1.5277,-2.1621 0.44944,-0.66282 1.074,-1.6249 1.388,-2.1366 0.31334,-0.51254 0.79326,-1.3292 1.0655,-1.8148 0.2715,-0.4856 0.73229,-1.3583 1.0229,-1.9395 0.29064,-0.58059 0.71102,-1.4696 0.93433,-1.9743 0.2226,-0.50474 0.54161,-1.2704 0.7082,-1.7014 0.16587,-0.43101 0.46433,-1.2782 0.6621,-1.8822 0.19778,-0.60469 0.47284,-1.5297 0.61107,-2.0558 0.13824,-0.52671 0.33036,-1.3461 0.42747,-1.8226 0.0964,-0.47566 0.23961,-1.337 0.31901,-1.914 0.0787,-0.57632 0.17509,-1.4313 0.21408,-1.8991 0.0397,-0.46788 0.0717,-1.4122 0.0723,-2.0984 7.1e-4,-0.68691 -0.0319,-1.6595 -0.0709,-2.1621 -0.0397,-0.50332 -0.12049,-1.2654 -0.18077,-1.6942 -0.0596,-0.42889 -0.17297,-1.1151 -0.25166,-1.5241 -0.0787,-0.40974 -0.26654,-1.2228 -0.41683,-1.8077 -0.15029,-0.58484 -0.38989,-1.4142 -0.5331,-1.8431 -0.14319,-0.42889 -0.43526,-1.2264 -0.65006,-1.7722 -0.21408,-0.54585 -0.68976,-1.5986 -1.0563,-2.3394 -0.3665,-0.7408 -0.96197,-1.8332 -1.3228,-2.428 -0.36084,-0.59406 -0.98113,-1.551 -1.3782,-2.1267 -0.39698,-0.57493 -1.0839,-1.4986 -1.5269,-2.053 -0.44306,-0.55365 -1.2094,-1.4504 -1.7021,-1.9927 -0.49339,-0.5423 -1.3051,-1.371 -1.8049,-1.8417 -0.49978,-0.47071 -1.259,-1.1477 -1.6878,-1.5042 -0.42888,-0.35658 -1.1307,-0.91235 -1.5596,-1.2342 -0.42888,-0.32255 -1.2101,-0.87336 -1.7368,-1.2243 -0.52601,-0.3509 -1.3234,-0.85493 -1.7722,-1.1201 -0.44803,-0.26512 -1.3575,-0.76278 -2.0204,-1.1052 -0.66282,-0.3431 -1.7155,-0.845 -2.3394,-1.1151 -0.62383,-0.26938 -1.6446,-0.68267 -2.2685,-0.91731 -0.62383,-0.23465 -1.4909,-0.5416 -1.9268,-0.68196 -0.43667,-0.13965 -1.3065,-0.39982 -1.9346,-0.57704 -0.62737,-0.17723 -1.7539,-0.4622 -2.5031,-0.63234 -0.7493,-0.17085 -1.6652,-0.36012 -2.0359,-0.42179 -0.37004,-0.061 -1.0718,-0.15951 -1.5596,-0.21835 -0.48701,-0.0595 -1.4128,-0.13965 -2.0558,-0.17794 -0.64297,-0.039 -1.4405,-0.0666 -1.7722,-0.0617 z m 6.2929,6.5211 0.72804,-0.01 3.4722,2.7356 c 1.9098,1.5042 3.4722,2.7591 3.4722,2.7888 0,0.0291 -0.16731,0.1432 -0.37217,0.25237 -0.20487,0.10988 -0.81878,0.45583 -1.3646,0.76916 -0.54585,0.31333 -1.5347,0.90526 -2.1976,1.315 -0.66282,0.41045 -1.7794,1.1321 -2.4812,1.6042 -0.70181,0.47283 -1.6908,1.1569 -2.1976,1.5206 -0.50686,0.36367 -1.32,0.96624 -1.8077,1.3384 -0.48701,0.37217 -1.2051,0.93149 -1.595,1.2434 -0.38989,0.31191 -1.0825,0.88045 -1.5397,1.2626 l -0.83083,0.69614 -3.2071,-3.7048 c -1.7637,-2.0373 -3.9103,-4.5157 -4.7695,-5.5067 -0.85918,-0.99175 -1.5574,-1.819 -1.5518,-1.8389 0.006,-0.0199 0.42108,-0.24812 0.92157,-0.50758 0.50119,-0.25875 1.3122,-0.65006 1.8035,-0.8684 0.49057,-0.21905 1.2101,-0.5253 1.6,-0.67983 0.38918,-0.15525 1.2314,-0.45724 1.8722,-0.67133 0.64086,-0.21408 1.7424,-0.5338 2.4485,-0.71103 0.70677,-0.17651 1.7432,-0.40194 2.3039,-0.50049 0.56144,-0.0985 1.4192,-0.22897 1.9062,-0.28923 0.48773,-0.061 1.2852,-0.13752 1.7722,-0.16942 0.48773,-0.0319 1.2136,-0.0631 1.6142,-0.0688 z m -27.77,13.033 c 0.0298,0 2.3883,2.6662 5.2409,5.9257 l 5.1856,5.9249 -1.2647,1.288 c -0.69472,0.7082 -1.7603,1.8141 -2.367,2.457 -0.6061,0.64368 -1.6914,1.8077 -2.4117,2.5875 -0.72023,0.77979 -2.0112,2.199 -2.8689,3.1546 -0.85776,0.95489 -2.2933,2.5662 -3.1893,3.5799 -0.89676,1.0137 -2.8406,3.2305 -4.3207,4.9269 -1.4795,1.6958 -3.6799,4.2158 -4.8892,5.6003 -1.2087,1.3838 -2.9625,3.3779 -3.8968,4.4306 -0.93433,1.0527 -2.2904,2.5676 -3.0142,3.3673 -0.72308,0.79964 -1.965,2.155 -2.7611,3.0128 -0.79539,0.85777 -2.462,2.6124 -3.704,3.899 -1.2413,1.2866 -3.2064,3.2518 -4.3661,4.3669 -1.1605,1.1151 -2.508,2.3961 -2.9959,2.8462 -0.48701,0.45015 -0.90739,0.80602 -0.93292,0.78971 -0.0255,-0.0155 -1.2782,-1.4951 -2.7832,-3.2878 l -2.7356,-3.2602 1.2229,-1.4724 c 0.67274,-0.80956 1.7999,-2.1898 2.5045,-3.0668 0.70464,-0.87691 1.7283,-2.1848 2.2748,-2.9057 0.54586,-0.72166 1.2802,-1.7105 1.6312,-2.1976 0.3509,-0.48772 0.97332,-1.3646 1.3838,-1.9495 0.40975,-0.58485 1.5106,-2.2118 2.4457,-3.6154 0.93503,-1.4036 2.4599,-3.7323 3.3892,-5.175 0.92938,-1.4427 2.3593,-3.66 3.1773,-4.9269 0.81808,-1.2675 2.2259,-3.4204 3.1283,-4.7851 0.90172,-1.3646 2.1785,-3.2631 2.837,-4.218 0.65857,-0.9556 1.644,-2.3593 2.1898,-3.1192 0.54585,-0.76065 1.471,-2.0204 2.0566,-2.8002 0.58485,-0.77979 1.4646,-1.9282 1.9544,-2.552 0.48914,-0.62384 1.3951,-1.7404 2.0132,-2.4812 0.61817,-0.7408 1.5908,-1.8736 2.1614,-2.5166 0.57136,-0.64368 1.6263,-1.768 2.3436,-2.4989 0.71812,-0.73088 1.3306,-1.3292 1.3611,-1.3292 z m -46.393,60.403 c 0.0447,-0.003 1.1201,1.2228 2.3904,2.7229 l 2.3095,2.7279 -0.69685,0.49411 c -0.38352,0.27151 -1.3959,0.95347 -2.2494,1.515 -0.85351,0.56146 -2.0303,1.3093 -2.6152,1.6617 -0.58485,0.35232 -1.5894,0.93645 -2.233,1.298 -0.64297,0.36154 -2.0148,1.0761 -3.0483,1.5872 -1.0329,0.5111 -2.4684,1.181 -3.19,1.4887 -0.72095,0.30765 -1.9013,0.77907 -2.6229,1.0484 -0.72095,0.26939 -1.9176,0.68055 -2.6584,0.91378 -0.7408,0.23323 -1.8892,0.56499 -2.552,0.73726 -0.66283,0.17297 -1.41,0.36082 -1.6595,0.41895 -0.35304,0.0815 -0.43243,0.0844 -0.35445,0.0135 0.0546,-0.051 0.84996,-0.69331 1.7659,-1.4284 0.91661,-0.73514 2.4124,-1.9558 3.324,-2.7129 0.91236,-0.75781 2.5393,-2.1338 3.6154,-3.0582 1.0768,-0.9244 2.5797,-2.2352 3.3396,-2.9129 0.76065,-0.677 2.0522,-1.8424 2.871,-2.5882 0.81878,-0.74648 2.0948,-1.9339 2.8356,-2.6392 0.7408,-0.70536 1.3838,-1.2846 1.4284,-1.2874 z"
         id="icon" /></g></g></svg>