<?xml version="1.0" encoding="UTF-8" standalone="no"?>
<svg
   xmlns:dc="http://purl.org/dc/elements/1.1/"
   xmlns:cc="http://creativecommons.org/ns#"
   xmlns:rdf="http://www.w3.org/1999/02/22-rdf-syntax-ns#"
   xmlns:svg="http://www.w3.org/2000/svg"
   xmlns="http://www.w3.org/2000/svg"
   xml:space="preserve"
   enable-background="new 0 0 200 200"
   viewBox="0 0 200 200"
   y="0px"
   x="0px"
   id="Layer_1"
   version="1.1"><metadata
     id="metadata21"><rdf:RDF><cc:Work
         rdf:about=""><dc:format>image/svg+xml</dc:format><dc:type
           rdf:resource="http://purl.org/dc/dcmitype/StillImage" /></cc:Work></rdf:RDF></metadata><defs
     id="defs19" /><path
     id="path2"
     fill="#fcfcfc"
     d="M178.5,131.2V68.8c0-8.7-4.7-16.8-12.2-21.2l-54.1-31.2c-7.6-4.4-16.9-4.4-24.4,0L33.7,47.6C26.2,52,21.5,60.1,21.5,68.8  v62.4c0,8.7,4.7,16.8,12.2,21.2l54.1,31.2c7.6,4.4,16.9,4.4,24.4,0l54.1-31.2C173.8,148,178.5,139.9,178.5,131.2z" /><g
     id="g14"
     transform="matrix(0.7,0,0,0.7,30,30)"><defs
       id="defs23237" /><linearGradient
       spreadMethod="pad"
       y2="0.30000001"
       x2="-0.1"
       y1="1.2"
       x1="0.30000001"
       id="3d_gradient2-logo-78ed5c2f-4f5f-4365-abd6-efa9318da509"><stop
         id="stop23214"
         stop-opacity="1"
         stop-color="#ffffff"
         offset="0%" /><stop
         id="stop23216"
         stop-opacity="1"
         stop-color="#000000"
         offset="100%" /></linearGradient><linearGradient
       gradientTransform="rotate(-30)"
       spreadMethod="pad"
       y2="0.30000001"
       x2="-0.1"
       y1="1.2"
       x1="0.30000001"
       id="3d_gradient3-logo-78ed5c2f-4f5f-4365-abd6-efa9318da509"><stop
         id="stop23219"
         stop-opacity="1"
         stop-color="#ffffff"
         offset="0%" /><stop
         id="stop23221"
         stop-opacity="1"
         stop-color="#cccccc"
         offset="50%" /><stop
         id="stop23223"
         stop-opacity="1"
         stop-color="#000000"
         offset="100%" /></linearGradient><path
       class="c1"
       d="m 105.12621,63.024668 c 0,0 -51.259889,-1.512338 -59.326457,60.168672 -3.024677,-7.22776 -4.706817,-15.12565 -4.706817,-23.529535 0,-33.94951 27.395281,-59.663795 63.698224,-59.663795 23.36088,0 43.02466,10.588635 54.11591,27.057943 L 134.53873,77.982782 C 127.64602,68.90763 116.72347,63.193326 105.12623,63.193326 v -0.168658 z"
       stroke-miterlimit="2"
       id="path11"
       style="font-style:normal;font-weight:normal;font-size:medium;line-height:1;font-family:'Brandmark Sans 2 Color';font-variant-ligatures:normal;text-align:center;text-anchor:middle;fill:#262223;stroke:#262223;stroke-width:0;stroke-linejoin:miter;stroke-miterlimit:2" /><path
       class="c3"
       d="m 105.12621,136.97419 c 11.42856,0 22.35341,-5.71428 29.24384,-14.79058 l 24.20194,10.75617 c -11.09351,16.47046 -30.58864,27.06023 -53.78083,27.06023 -5.041892,0 -9.917367,-0.50602 -14.455526,-1.51348 -4.032141,-1.51348 -7.897888,-3.52841 -11.428561,-6.38669 -9.746421,-8.06655 -13.108436,-16.63913 -14.28458,-20.67128 -4.034428,-12.94204 0.337338,-25.04301 3.024677,-31.596097 0.168681,20.336197 18.318985,36.806647 37.64772,36.806647 z"
       stroke-miterlimit="2"
       id="path13"
       style="font-style:normal;font-weight:normal;font-size:medium;line-height:1;font-family:'Brandmark Sans 2 Color';font-variant-ligatures:normal;text-align:center;text-anchor:middle;fill:#c8272e;stroke:#c8272e;stroke-width:0;stroke-linejoin:miter;stroke-miterlimit:2" /></g></svg>